<svg width="591.43mm" height="84.549mm" version="1.1" viewBox="0 0 591.43 84.549" xmlns="http://www.w3.org/2000/svg">
 <g transform="translate(468.56 33.29)" fill="#1d1929" stroke-linecap="round" stroke-width="1.5753">
  <path transform="matrix(.54862 .022651 -.022651 .54862 -211.86 31.884)" d="m-334.75 49.081-51.108-24.918-48.849 29.099 7.9051-56.307-42.77-37.466 55.994-9.8816 22.416-52.254 26.701 50.2 56.624 5.1711-39.492 40.907z"/>
  <path transform="matrix(.54862 .022651 -.022651 .54862 -86.224 31.884)" d="m-334.75 49.081-51.108-24.918-48.849 29.099 7.9051-56.307-42.77-37.466 55.994-9.8816 22.416-52.254 26.701 50.2 56.624 5.1711-39.492 40.907z"/>
  <path transform="matrix(.54862 .022651 -.022651 .54862 39.412 31.884)" d="m-334.75 49.081-51.108-24.918-48.849 29.099 7.9051-56.307-42.77-37.466 55.994-9.8816 22.416-52.254 26.701 50.2 56.624 5.1711-39.492 40.907z"/>
  <path transform="matrix(.54862 .022651 -.022651 .54862 165.05 31.884)" d="m-334.75 49.081-51.108-24.918-48.849 29.099 7.9051-56.307-42.77-37.466 55.994-9.8816 22.416-52.254 26.701 50.2 56.624 5.1711-39.492 40.907z"/>
  <path transform="matrix(.54862 .022651 -.022651 .54862 290.68 31.884)" d="m-334.75 49.081-51.108-24.918-48.849 29.099 7.9051-56.307-42.77-37.466 55.994-9.8816 22.416-52.254 26.701 50.2 56.624 5.1711-39.492 40.907z"/>
 </g>
</svg>
