<svg width="612.54mm" height="215.3mm" version="1.1" viewBox="0 0 612.54 215.3" xmlns="http://www.w3.org/2000/svg">
 <g transform="translate(160.29 -40.85)">
  <g fill="none" stroke="#999" stroke-width=".7">
   <path d="m50.538 144.55 0.2341 12.603 6.311-1.4113-0.179-13.007-6.5287 1.8433"/>
   <path d="m76.615 138.17 0.3272 14.844 10.896-0.83131-0.8661-15.18"/>
   <path d="m51.444 145.45 0.1926 10.033 4.2207-1.1845-0.2303-9.8172z"/>
   <path d="m78.04 139.52 7.1586-0.80633 0.4928 12.049-7.3306 0.97187z"/>
   <path d="m114.45 135.07v17.094l11.684-0.10513-0.4634-16.914"/>
   <path d="m115.87 136.48 7.966-0.0789 0.4203 14.027-8.1431-0.0526 0.052-13.922"/>
   <path d="m145.89 137.4 0.078 16.241 6.4661-1.4896 5.7846-1.3492-0.5814-11.202"/>
   <path d="m148.48 153.06 0.139-13.006 6.9662 1.0342 0.5779 10.191"/>
   <path d="m146.19 137.78 11.772 2.1835"/>
   <path d="m76.358 138.45 10.862-1.4697"/>
   <path d="m50.538 144.55-1.0232 0.19565c-0.17081-1.08 0.07983-2.221 0.68752-3.13 0.60769-0.90896 1.5663-1.5767 2.6296-1.8316 1.0091-0.24194 2.1031-0.1114 3.027 0.36118 0.92384 0.47258 1.6699 1.2833 2.0642 2.2432l-1.0188 0.34616"/>
   <path d="m76.358 138.45-0.919 0.18723c0.27085-1.4942 1.0611-2.8892 2.2035-3.8897 1.1424-1.0005 2.6294-1.6 4.1463-1.6714 1.2804-0.0603 2.5763 0.25213 3.6885 0.88942 1.1122 0.6373 2.0371 1.5972 2.6325 2.7324l-1.1385 0.30021"/>
   <path d="m146.19 137.78-1.8385-0.38316c0.71757-1.7824 2.1505-3.2649 3.9074-4.0428 2.2466-0.99461 4.9858-0.78509 7.055 0.53962 2.0692 1.3247 3.4061 3.7247 3.4432 6.1814l-1.1166-0.17842"/>
   <path d="m114.16 135.08h-0.9265c0.52831-1.4251 1.5098-2.6784 2.7668-3.5329 1.257-0.85449 2.7834-1.3061 4.3029-1.2731 1.4662 0.0318 2.9196 0.51386 4.1143 1.3645 1.1947 0.85064 2.1256 2.0664 2.6354 3.4415l-1.3749 0.0631"/>
   <path d="m114.17 135.07 11.812 0.0748"/>
   <path d="m181.12 242.17-1.4967-115.25 45.65-8.1178 1.8709 120.75z"/>
   <path d="m225.28 118.8 35.86 5.2289 0.7938 7.9375 95.196-18.472-1.0049-30.74 78.317-20.108 16.933 10.054 0.5292 178.33-14.288 4.7625-77.258-6.35-3.2285-135.95"/>
   <path d="m373.06 167.69-2.1167-68.792 47.36-11.112v74.877s-45.244 5.5562-45.244 5.0271z"/>
   <path d="m372.62 153.55 45.679-5.1728"/>
   <path d="m376.9 153.06 0.5226 14.34"/>
   <path d="m380.47 152.66 0.5226 14.376"/>
   <path d="m384.04 152.25 0.5226 14.392"/>
   <path d="m387.62 151.82 0.5226 14.423"/>
   <path d="m391.19 151.56 0.5226 14.272"/>
   <path d="m394.81 150.97 0.5226 14.449"/>
   <path d="m398.33 150.64 0.5226 14.365"/>
   <path d="m401.86 150.21 0.5226 14.377"/>
   <path d="m405.48 149.83 0.5226 14.325"/>
   <path d="m409.05 149.36 0.5226 14.365"/>
   <path d="m412.62 149.02 0.5226 14.273"/>
   <path d="m415.6 148.68 0.5226 14.248"/>
   <path d="m451.43 92.778-12.5-7.4834 1.4032 75.21 11.699 3.223"/>
   <path d="m440.05 145.26 11.553 5.2333"/>
   <path d="m442.55 146.39 0.4167 14.836"/>
   <path d="m445.83 147.88 0.3576 14.237"/>
   <path d="m448.65 149.16 0.3673 13.739"/>
   <path d="m375.04 238.6-1.0583-64.426 45.244-3.8365-0.7937 68.659z"/>
   <path d="m452.07 172.45-8.976-2.2608v67.745l8.9408 1.1918"/>
   <path d="m261.93 131.97-20.752 3.7446-9.3544 36.669 126.3-16.829"/>
   <path d="m231.83 172.38 1.3096 4.116 125.01-16.267"/>
   <path d="m179.63 126.92 19.083-33.489 26.53-5.8149 0.036 31.186"/>
   <path d="m225.24 87.618 21.551 3.944 14.345 32.471"/>
   <path d="m190.39 177.98 0.6549-38.803 10.945-7.3359 10.749 4.4361v39.382z"/>
   <path d="m190.58 166.75 22.291-2.967"/>
   <path d="m192.82 166.43-0.4042 11.337"/>
   <path d="m195.64 166.06-0.5566 11.433"/>
   <path d="m198.19 165.72-0.6435 11.515"/>
   <path d="m200.62 165.4-0.448 11.564"/>
   <path d="m203.39 164.99-0.468 11.652"/>
   <path d="m206.24 164.66-0.5422 11.734"/>
   <path d="m209.09 164.28-0.734 11.835"/>
   <path d="m211.29 163.99-0.9038 11.915"/>
   <path d="m235.29 176.22-0.093 64.265h10.196l-0.7483-47.895 24.091-2.0552 1.2596 48.734 12.348 0.65481-0.9354-49.672 77.338-8.7795"/>
   <path d="m269.92 236.64-9.2871 0.19502 0.6548-32.834 7.7767-0.46321"/>
   <path d="m281.87 203.41h3.274l-0.187 33.564h-2.7128"/>
   <path d="m302.64 237.1-0.3741-36.469 7.7641-0.37417 0.2807 36.843z"/>
   <path d="m323.59 198.58 5.9868-0.18709 1.029 37.885-7.39-0.84189z"/>
   <path d="m358.76 196.43-10.189-0.28063-0.2806 39.476 11.736-0.19032"/>
   <path d="m376.77 192.68 7.1438 0.18708 0.787 41.721-7.9308 1.1635z"/>
   <path d="m227.15 239.55 8.0453 0.93544h10.196l24.602-1.2161 12.348 0.65481 77.686 0.69356"/>
   <path d="m360.36 249.45-39.158-1.1906-37.623-0.66146-28.655 0.79375h-49.08l-49.212-0.17945-158.07-0.31959-34.184-0.55929-58.564 0.95878h-28.884l-36.993 0.93136"/>
   <path d="m-160.29 245.59 34.774-0.0526 46.866-0.0935 41.347-1.2161 73.432 0.28064 32.834-0.8419 84.283 0.74835 27.876-2.2451"/>
   <path d="m-159.94 245.76 1.0282-65.148 19.831-2.9934 28.438 3.5547-0.9355 5.2385-22.451 0.93544 1.2161 23.76 49.298-0.18709 1.3096-40.037 35.266-0.74836-2.2073 74.436"/>
   <path d="m-153.86 209.15 0.2806-20.954 10.009 0.0935-0.6549 21.141z"/>
   <path d="m-153.29 240.6-0.01-21.257 9.1673-0.0935 0.1376 21.311z"/>
   <path d="m-111.58 186.42 28.919-1.6396"/>
   <path d="m-133.86 190.52 51.112-2.8458"/>
   <path d="m-133.87 193.35 51.014-2.4476"/>
   <path d="m-133.88 195.8 51.026-2.3153"/>
   <path d="m-133.42 198.56 50.302-2.4052"/>
   <path d="m-133.42 200.83 50.303-1.8576"/>
   <path d="m-133.43 203.34 50.313-1.7198"/>
   <path d="m-133.08 205.92 49.78-1.615"/>
   <path d="m-133.08 208.57 49.789-1.5214"/>
   <path d="m-125.51 245.54 0.3742-25.818 43.405-0.60132-0.2807 26.65"/>
   <path d="m-75.841 239.27 0.2806-19.551 15.996 0.0935-0.1871 19.457z"/>
   <path d="m-75.976 225.99 16.544 0.18709"/>
   <path d="m-70.416 219.58-0.7483 19.684"/>
   <path d="m-64.242 219.58-1.029 19.689"/>
   <path d="m-74.287 204.17 0.463-19.529 7.8052-6.5041 8.2021 6.0193-0.3307 20.014z"/>
   <path d="m-74.104 196.46 16.084 4e-3"/>
   <path d="m-70.968 196.6-0.43 7.5749"/>
   <path d="m-67.629 196.53-0.1551 7.7092"/>
   <path d="m-64.311 196.53-0.1322 7.7119"/>
   <path d="m-60.942 196.46-0.066 7.716"/>
   <path d="m-82.202 170.89 12.347-18.081 21.1-1.3891 1.8188 18.722"/>
   <path d="m-48.755 151.42 8.2682 2.1828 8.7313 17.362-15.181-0.82296"/>
   <path d="m-31.755 170.96-0.029 73.285"/>
   <path d="m-31.917 177.97c36.566-2.6561 73.133-5.3121 108.43-10.696 35.298-5.3844 69.328-13.497 103.36-21.609"/>
   <path d="m-31.917 187.09c36.566-2.6561 73.133-5.3121 108.45-10.712 35.318-5.3998 69.386-13.543 103.45-21.686"/>
   <path d="m-25.541 244.27 0.2017-2.2348h10.716l-0.5953 2.211"/>
   <path d="m-13.301 244.28 0.2646-2.379h14.552v2.4705"/>
   <path d="m-22.708 241.77 0.8419-35.195 6.4545-1.3231-1.4967 36.65"/>
   <path d="m-18.639 205.92-1.3426 36.121"/>
   <path d="m-10.922 241.77v-37.424l7.9031-1.5175-0.045 38.941"/>
   <path d="m-6.9701 203.59-0.023 38.185"/>
   <path d="m36.131 244.51v-3.929h23.667v3.3221"/>
   <path d="m41.65 240.58 0.4678-36.742 14.312-1.3876-0.3742 37.997"/>
   <path d="m49.347 240.58-0.073-37.462"/>
   <path d="m126.4 244.18v-4.784h18.391v4.9472"/>
   <path d="m128.38 239.26 0.1985-40.446h12.7l-0.5292 40.446"/>
   <path d="m134.37 239.39 0.5623-40.084"/>
   <path d="m56.314 213.4 19.417-0.0683 0.2619 30.398"/>
   <path d="m56.314 210.35h22.924l0.463 33.376"/>
   <path d="m6.9454 244.38 0.4677-35.884"/>
   <path d="m15.177 244.38 0.8419-37.327"/>
   <path d="m-31.77 208.63c28.675-5.9717 57.35-11.943 88.717-14.524 31.367-2.5805 65.424-1.7698 99.482-0.95906"/>
   <path d="m-31.77 202.28c28.675-5.9717 57.35-11.943 88.717-14.524 31.367-2.5805 65.424-1.7698 99.482-0.95906"/>
   <path d="m149.38 161.93c0.042 8.2344 0.0839 16.468 0.1259 24.702"/>
   <path d="m156.43 160.41c3e-5 8.8244 7e-5 17.649 1e-4 26.473m0 6.1739c-3e-5 17.033-7e-5 34.066-1e-4 51.1"/>
   <path d="m149.51 192.99v51.393"/>
   <path d="m156.43 186.8-2.5794 2.7868 2.5794 3.5678"/>
   <path d="m156.43 184.16 23.887-4.0342"/>
   <path d="m156.41 173.71 23.931-4.8286"/>
   <path d="m159.2 173.47v10.511"/>
   <path d="m161.97 172.65v10.627"/>
   <path d="m164.6 182.78"/>
   <path d="m165.81 171.81v10.764"/>
   <path d="m170.34 181.81"/>
   <path d="m169.84 170.9v10.913"/>
   <path d="m173.1 170.34v11.004"/>
   <path d="m176.92 169.48v11.144"/>
   <path d="m156.43 197.74 23.909-2.6192"/>
   <path d="m167.46 237.67v-28.908l10.044-2.0482v28.707z"/>
   <path d="m167.33 216.77 10.308-2.249"/>
   <path d="m172.48 207.74v28.808"/>
   <path d="m92.996 209.16 0.1984 20.505 24.937 0.19844-0.2646-21.762z"/>
   <path d="m90.967 207.58 0.2305 23.816 28.963 0.23047-0.3073-25.275z"/>
   <path d="m93.053 215.05 24.887-0.93166"/>
   <path d="m99.461 208.89 0.4127 20.833"/>
   <path d="m109 208.48 0.5953 21.242"/>
   <path d="m41.998 180.84 0.1321 8.3909"/>
   <path d="m36.868 172.27c-0.02733-1.6146-0.05466-3.2294 6.142-5.3154 6.1967-2.086 18.617-4.6429 32.702-6.0365 14.085-1.3936 29.835-1.6239 45.585-1.8542"/>
   <path d="m43.01 161.84v-21.827"/>
   <path d="m172.96 146.57v-10.29"/>
   <path d="m43.01 140.02c21.468-6.6105 42.934-13.221 64.612-13.833 21.677-0.61188 43.563 4.7746 65.449 10.161"/>
   <path d="m104.26 126.35c-0.022-11.47 0.14961-22.941 0.5147-34.405 0.21042-6.6073 0.4851-13.213 0.824-19.814"/>
   <path d="m97.154 126.92c-1.1118-11.452-0.62507-23.057 1.4418-34.376 1.2735-6.9736 3.1443-13.838 5.5854-20.493"/>
   <path d="m111.26 126.1c0.79706-10.859 0.65905-21.787-0.412-32.623-0.71081-7.1912-1.832-14.342-3.3563-21.406"/>
   <path d="m89.741 127.99c-1.4643-11.919-0.36841-24.147 3.1922-35.616 2.2093-7.1162 5.3582-13.94 9.3393-20.239"/>
   <path d="m118.68 126.32c1.1206-11.075 0.42193-22.332-2.0595-33.184-1.66-7.2594-4.1138-14.337-7.3036-21.066"/>
   <path d="m82.533 129.28c-1.6014-12.08-0.06157-24.564 4.4275-35.893 3.0722-7.7534 7.5077-14.964 13.042-21.203"/>
   <path d="m126.4 127.01c1.5997-11.737 0.27907-23.862-3.8102-34.98-2.6494-7.2031-6.4463-13.983-11.204-20.005"/>
   <path d="m76.202 130.8c-1.5565-11.866 0.17155-24.146 4.9423-35.122 3.8932-8.957 9.7906-17.036 17.135-23.474"/>
   <path d="m69.559 132.26c-1.3455-12.378 0.97337-25.132 6.5899-36.245 4.7804-9.4582 11.921-17.712 20.593-23.804"/>
   <path d="m63.586 133.96c-1.492-14.455 2.1756-29.389 10.194-41.508 5.5079-8.3249 13.012-15.319 21.704-20.228"/>
   <path d="m58.438 135.38c-1.4554-15.578 3.1189-31.642 12.562-44.116 6.1311-8.0992 14.242-14.688 23.426-19.03"/>
   <path d="m53.105 136.99c-0.9038-15.97 4.2032-32.21 14.085-44.788 6.8043-8.661 15.799-15.587 25.912-19.951"/>
   <path d="m47.523 138.65c-0.16308-17.533 6.4772-35.042 18.226-48.058 7.234-8.0142 16.329-14.338 26.36-18.329"/>
   <path d="m43.013 140.06c-0.03758-16.438 5.839-32.827 16.313-45.496 8.5354-10.324 20.047-18.158 32.783-22.309"/>
   <path d="m132.58 127.7c1.4437-11.463-0.13365-23.293-4.5304-33.977-3.32-8.0677-8.229-15.478-14.363-21.681"/>
   <path d="m139.37 128.83c1.1721-11.869-1.0294-24.052-6.2812-34.761-4.1741-8.5108-10.251-16.082-17.656-22"/>
   <path d="m146.48 130.19c1.4053-12.692-1.4221-25.817-7.9288-36.805-5.2496-8.865-12.85-16.324-21.812-21.406"/>
   <path d="m151.52 131.16c1.2249-13.456-2.288-27.296-9.782-38.539-5.8343-8.7528-14.026-15.918-23.477-20.536"/>
   <path d="m156.88 132.34c0.96742-13.087-2.5183-26.463-9.7497-37.414-6.8293-10.342-16.952-18.473-28.523-22.912"/>
   <path d="m162.95 133.81c0.76492-14.661-4.018-29.545-13.18-41.015-7.8226-9.7935-18.756-17.064-30.812-20.49"/>
   <path d="m167.48 134.93c0.80744-14.504-3.8189-29.247-12.768-40.689-8.7439-11.18-21.536-19.122-35.434-22"/>
   <path d="m172.95 136.37c0.62701-14.183-3.7825-28.537-12.264-39.922-9.7897-13.142-24.962-22.144-41.188-24.439"/>
   <path d="m92.051 72.258c9.1964-0.08487 18.393-0.16973 27.588-0.25459"/>
   <path d="m99.791 72.159v-5.8255"/>
   <path d="m104.93 72.124v-5.7902"/>
   <path d="m110.06 72.124v-5.7902"/>
   <path d="m99.782 66.334-3.358-0.49753 0.2912-8.8244 2.7933-3.3453-1.4943-1.5478c3.0586-3.0757 5.0948-6.9071 7.3795-10.556 1.881 3.7466 4.1951 7.0534 6.8861 10.221l-0.9838 1.4831 2.1096 2.9741-0.1238 9.4924-3.2512 0.6002h-10.265"/>
   <path d="m96.548 63.45c2.8784-1.4128 6.0845-2.1526 9.291-2.144 2.5015 0.0067 5.001 0.46607 7.3415 1.3491"/>
   <path d="m96.424 59.508c2.563-1.6665 5.5806-2.6261 8.6354-2.7461 2.8286-0.11116 5.6825 0.49548 8.2213 1.7476"/>
   <path d="m99.508 53.667c1.8485-1.005 3.9406-1.5581 6.0443-1.5978 1.9718-0.03719 3.9508 0.37572 5.7432 1.1983"/>
   <path d="m106.52 66.334v5.7755"/>
   <path d="m196.55 97.233c3.0074-0.80678 28.672-5.8582 28.672-5.8582l23.233 3.9402"/>
   <path d="m194.31 101.04 30.903-5.6397 25.11 4.166"/>
   <path d="m192.03 105.16 33.187-5.995 26.346 3.8342"/>
   <path d="m190.25 108.16 34.967-5.1617 28.218 3.6025"/>
   <path d="m188.11 112.04 37.159-5.2708 30.019 4.02"/>
   <path d="m185.46 116.68 39.754-6.0089 32.387 5.3625"/>
   <path d="m182.44 121.98 42.776-7.343 34.303 5.7324"/>
   <path d="m239.78 141.21 117.49-21.591"/>
   <path d="m238.38 146.71 118.92-21.839"/>
   <path d="m237.27 151.04c0.034-0.13444 120.31-20.63 120.31-20.63"/>
   <path d="m236.03 155.9 121.27-19.047"/>
   <path d="m235.06 160.1 122.24-16.855"/>
   <path d="m233.85 164.44 124.41-17.6"/>
   <path d="m232.83 168.37 125.23-16.885"/>
   <path d="m31.074 172.86c-0.24761-3.0383-0.49524-6.0768 6.5972-9.1252 7.0924-3.0484 21.524-6.106 39.552-7.5081 18.029-1.4021 39.653-1.1484 61.278-0.89483"/>
   <path d="m-139.08 177.62-0.6281 68.149"/>
   <path d="m-115.17 224.2-0.5209 13.607 17.793-0.13229 0.7853-12.764-18.113-0.22428"/>
   <path d="m-106.17 224.92-0.6252 12.822"/>
   <path d="m-115.4 231.36 17.888-0.0661"/>
   <path d="m164.6 158.57c5.2789 1.1211 10.557 2.2422 15.836 3.3632"/>
   <path d="m156.31 162.96c4.0215 0.55757 8.0429 1.1151 11.989 1.7739 3.9462 0.65877 7.8164 1.4186 11.687 2.1785"/>
   <path d="m-10.922 210.92-4.8446 1.1145m-6.5563 1.5082c-2.9776 0.68486-6.5113 1.4976-8.9329 2.0546m28.281-4.982c7.3603-1.5978 14.721-3.1956 30.722-5.1644 16.002-1.9689 40.644-4.3087 62.378-5.4786 21.734-1.1699 40.558-1.1699 59.383-1.1699"/>
   <path d="m-71.705 155.52c0.111-0.16259 22.861-1.5594 22.861-1.5594l9.5263 1.9681"/>
   <path d="m-73.549 158.22 25.311-1.473 10.122 1.5736"/>
   <path d="m-75.349 160.85 27.378-1.3665 11.148 1.7262"/>
   <path d="m-76.921 163.15 29.204-1.0508 12.233 1.4458"/>
   <path d="m-79.006 166.21 31.565-1.264 13.31 1.2967"/>
   <path d="m-80.68 168.66 33.44-1.1942 14.349 1.242"/>
  </g>
 </g>
</svg>
