<svg xmlns="http://www.w3.org/2000/svg" xmlns:xlink="http://www.w3.org/1999/xlink" width="64" zoomAndPan="magnify" viewBox="0 0 48 48" height="64" preserveAspectRatio="xMidYMid meet" version="1.0"><defs><clipPath id="62ec426192"><path d="M 0.488281 0 L 47.507812 0 L 47.507812 47.019531 L 0.488281 47.019531 Z M 0.488281 0 " clip-rule="nonzero"/></clipPath></defs><g clip-path="url(#62ec426192)"><path fill="#000000" d="M 38.890625 0 L 9.109375 0 C 4.355469 0 0.488281 3.867188 0.488281 8.621094 L 0.488281 38.398438 C 0.488281 43.152344 4.355469 47.019531 9.109375 47.019531 L 23.5 47.019531 L 23.5 29.777344 L 20.15625 29.777344 L 20.15625 23.929688 L 23.5 23.929688 L 23.5 22.9375 C 23.5 19.859375 24.4375 16.464844 26.738281 14.375 C 28.71875 12.496094 31.488281 11.816406 33.785156 11.816406 C 35.558594 11.816406 36.917969 12.027344 38.011719 12.339844 L 37.699219 18.449219 C 37.019531 18.238281 36.183594 18.082031 35.140625 18.082031 C 32.53125 18.082031 31.433594 20.117188 31.433594 22.625 L 31.433594 23.929688 L 36.550781 23.929688 L 36.550781 29.777344 L 31.488281 29.777344 L 31.488281 47.019531 L 38.890625 47.019531 C 43.644531 47.019531 47.511719 43.152344 47.511719 38.398438 L 47.511719 8.621094 C 47.511719 3.867188 43.644531 0 38.890625 0 Z M 38.890625 0 " fill-opacity="1" fill-rule="nonzero"/></g></svg>