<svg xmlns="http://www.w3.org/2000/svg" xmlns:xlink="http://www.w3.org/1999/xlink" width="64" zoomAndPan="magnify" viewBox="0 0 48 48" height="64" preserveAspectRatio="xMidYMid meet" version="1.0"><defs><clipPath id="dfdf7ebae0"><path d="M 0.488281 4.390625 L 47.507812 4.390625 L 47.507812 42.59375 L 0.488281 42.59375 Z M 0.488281 4.390625 " clip-rule="nonzero"/></clipPath></defs><g clip-path="url(#dfdf7ebae0)"><path fill="#000000" d="M 47.09375 10.722656 L 45.839844 9.859375 C 45.839844 9.859375 43.535156 10.1875 43.515625 10.183594 C 43.558594 10.160156 46.261719 9.140625 46.261719 9.140625 L 47.164062 7.710938 L 45.375 7.359375 L 44.207031 7.550781 L 45.667969 6.695312 L 46.722656 4.921875 L 44.261719 4.84375 L 30.769531 12.746094 L 32.996094 19.132812 L 30.660156 21.234375 L 27.03125 21.230469 C 27.027344 21.230469 27.066406 18.636719 27.082031 17.398438 C 27.097656 16.425781 26.621094 15.738281 25.710938 15.414062 C 25.066406 15.179688 24.394531 15.148438 23.71875 15.1875 C 23.292969 15.207031 22.871094 15.277344 22.46875 15.433594 C 21.875 15.671875 21.445312 16.0625 21.277344 16.699219 C 21.230469 16.867188 21.179688 17.355469 21.179688 17.355469 C 20.382812 17.472656 19.761719 17.921875 19.535156 18.699219 C 19.46875 18.933594 19.433594 19.480469 19.433594 19.480469 L 21.257812 19.480469 L 21.257812 21.230469 L 17.371094 21.234375 L 15.035156 19.132812 L 17.261719 12.746094 L 3.769531 4.84375 L 1.308594 4.921875 L 2.363281 6.695312 L 3.824219 7.550781 L 2.65625 7.359375 L 0.867188 7.710938 L 1.769531 9.140625 C 1.769531 9.140625 4.46875 10.164062 4.515625 10.183594 C 4.492188 10.1875 2.191406 9.859375 2.191406 9.859375 L 0.9375 10.722656 L 1.632812 11.722656 C 1.632812 11.722656 5.359375 12.691406 5.636719 12.765625 C 5.355469 12.757812 2.1875 12.429688 2.1875 12.429688 L 0.941406 13.300781 C 1.246094 13.679688 1.972656 14.472656 1.972656 14.472656 C 1.972656 14.472656 4.605469 14.722656 4.871094 14.75 C 4.832031 14.769531 3.082031 14.84375 3.082031 14.84375 L 1.964844 15.578125 L 3.09375 16.679688 C 3.09375 16.679688 5.730469 16.667969 5.761719 16.667969 C 5.71875 16.695312 4.257812 16.839844 3.566406 16.90625 C 3.527344 16.910156 3.011719 17.523438 2.785156 17.8125 C 2.992188 18.03125 3.503906 18.542969 3.59375 18.542969 C 4.601562 18.554688 6.722656 18.589844 6.722656 18.589844 L 4.546875 18.902344 L 3.632812 19.777344 L 4.59375 20.480469 L 7.328125 20.027344 L 5.074219 20.835938 L 4.679688 21.648438 L 5.460938 22.132812 L 6.703125 21.75 C 6.703125 21.75 6.167969 22.109375 5.949219 22.25 C 5.917969 22.273438 5.804688 23.140625 5.804688 23.140625 L 6.796875 23.03125 L 7.363281 22.699219 L 6.898438 23.296875 L 6.84375 24.214844 L 7.4375 24.289062 C 7.4375 24.289062 7.390625 24.917969 7.367188 25.238281 C 7.691406 25.253906 8.007812 25.269531 8.332031 25.28125 C 8.289062 25.574219 8.253906 25.84375 8.210938 26.128906 C 8.519531 26.117188 8.8125 26.101562 9.121094 26.089844 C 9.101562 26.371094 9.085938 26.644531 9.070312 26.925781 C 9.296875 26.910156 9.511719 26.898438 9.734375 26.886719 C 9.769531 27.105469 9.804688 27.3125 9.839844 27.535156 C 10.082031 27.453125 10.3125 27.375 10.554688 27.296875 C 10.597656 27.550781 10.640625 27.796875 10.6875 28.050781 C 10.933594 27.945312 11.164062 27.847656 11.398438 27.746094 C 11.480469 28.03125 11.558594 28.300781 11.636719 28.574219 C 11.941406 28.445312 12.234375 28.324219 12.535156 28.195312 C 12.609375 28.457031 12.679688 28.703125 12.75 28.960938 C 13.035156 28.832031 13.308594 28.710938 13.585938 28.589844 C 13.75 28.8125 13.910156 29.03125 14.070312 29.25 C 14.347656 29.09375 14.609375 28.941406 14.878906 28.785156 C 15.042969 29.023438 15.203125 29.257812 15.363281 29.496094 C 15.617188 29.308594 15.859375 29.128906 16.109375 28.945312 C 16.289062 29.207031 16.460938 29.457031 16.636719 29.71875 C 16.859375 29.472656 17.070312 29.230469 17.292969 28.980469 C 17.308594 29.042969 17.699219 30.433594 17.636719 30.484375 C 17.058594 30.964844 15.785156 32.054688 15.753906 32.128906 C 15.371094 32.945312 14.503906 34.746094 14.371094 34.746094 C 13 34.710938 10.175781 34.664062 10.109375 34.664062 C 10.519531 35.167969 10.914062 35.648438 11.308594 36.125 C 11.335938 36.15625 16.085938 37.304688 16.152344 37.253906 C 17.105469 36.515625 19.164062 34.964844 19.242188 34.953125 C 19.757812 34.863281 21.53125 34.582031 21.925781 34.519531 C 21.878906 34.574219 18.035156 39.089844 18.035156 39.136719 C 18.042969 39.355469 18.09375 40.054688 18.105469 40.183594 C 18.144531 40.183594 19.003906 40.113281 19.40625 40.074219 C 19.484375 40.066406 19.523438 40.082031 19.546875 40.167969 C 19.613281 40.4375 19.808594 41.082031 19.828125 41.144531 C 20.238281 41.019531 20.640625 40.898438 21.039062 40.765625 C 21.152344 40.726562 21.203125 40.753906 21.253906 40.859375 C 21.398438 41.144531 21.554688 41.425781 21.710938 41.71875 C 22.125 41.476562 22.535156 41.238281 22.945312 41 C 22.976562 41.027344 23.933594 42.207031 24.015625 42.125 C 24.097656 42.207031 25.054688 41.027344 25.085938 41 C 25.496094 41.238281 25.902344 41.476562 26.320312 41.71875 C 26.476562 41.425781 26.632812 41.144531 26.777344 40.859375 C 26.828125 40.753906 26.878906 40.726562 26.992188 40.765625 C 27.390625 40.898438 27.792969 41.019531 28.203125 41.144531 C 28.222656 41.082031 28.414062 40.4375 28.484375 40.167969 C 28.507812 40.082031 28.546875 40.066406 28.625 40.074219 C 29.027344 40.113281 29.886719 40.183594 29.925781 40.183594 C 29.9375 40.054688 29.988281 39.355469 29.996094 39.136719 C 29.996094 39.089844 26.148438 34.574219 26.105469 34.519531 C 26.5 34.582031 28.269531 34.863281 28.789062 34.953125 C 28.867188 34.964844 30.925781 36.515625 31.878906 37.253906 C 31.945312 37.304688 36.695312 36.15625 36.722656 36.125 C 37.117188 35.648438 37.511719 35.167969 37.921875 34.664062 C 37.855469 34.664062 35.027344 34.710938 33.660156 34.746094 C 33.527344 34.746094 32.660156 32.945312 32.277344 32.128906 C 32.246094 32.054688 30.972656 30.964844 30.394531 30.484375 C 30.332031 30.433594 30.722656 29.042969 30.738281 28.980469 C 30.960938 29.230469 31.171875 29.472656 31.390625 29.71875 C 31.570312 29.457031 31.742188 29.207031 31.921875 28.945312 C 32.171875 29.128906 32.414062 29.308594 32.667969 29.496094 C 32.828125 29.257812 32.988281 29.023438 33.152344 28.785156 C 33.421875 28.941406 33.683594 29.09375 33.960938 29.25 C 34.121094 29.03125 34.28125 28.8125 34.445312 28.589844 C 34.722656 28.710938 34.992188 28.832031 35.277344 28.960938 C 35.351562 28.703125 35.421875 28.457031 35.496094 28.195312 C 35.796875 28.324219 36.085938 28.445312 36.394531 28.574219 C 36.472656 28.300781 36.550781 28.03125 36.628906 27.746094 C 36.867188 27.847656 37.097656 27.945312 37.34375 28.050781 C 37.390625 27.796875 37.433594 27.550781 37.476562 27.296875 C 37.71875 27.375 37.949219 27.453125 38.191406 27.535156 C 38.226562 27.3125 38.261719 27.105469 38.296875 26.886719 C 38.519531 26.898438 38.730469 26.910156 38.960938 26.925781 C 38.945312 26.644531 38.925781 26.371094 38.910156 26.089844 C 39.21875 26.101562 39.511719 26.117188 39.816406 26.128906 C 39.777344 25.84375 39.738281 25.574219 39.699219 25.28125 C 40.023438 25.269531 40.339844 25.253906 40.664062 25.238281 C 40.640625 24.917969 40.59375 24.289062 40.59375 24.289062 L 41.1875 24.214844 L 41.132812 23.296875 L 40.667969 22.699219 L 41.234375 23.03125 L 42.226562 23.140625 C 42.226562 23.140625 42.113281 22.273438 42.082031 22.25 C 41.863281 22.109375 41.328125 21.75 41.328125 21.75 L 42.566406 22.132812 L 43.351562 21.648438 L 42.957031 20.835938 L 40.703125 20.027344 L 43.4375 20.480469 L 44.398438 19.777344 L 43.484375 18.902344 L 41.308594 18.589844 C 41.308594 18.589844 43.429688 18.554688 44.4375 18.542969 C 44.523438 18.542969 45.039062 18.03125 45.242188 17.8125 C 45.019531 17.523438 44.503906 16.910156 44.464844 16.90625 C 43.773438 16.839844 42.3125 16.695312 42.269531 16.667969 C 42.300781 16.667969 44.9375 16.679688 44.9375 16.679688 L 46.066406 15.578125 L 44.949219 14.84375 C 44.949219 14.84375 43.199219 14.769531 43.160156 14.75 C 43.425781 14.722656 46.054688 14.472656 46.054688 14.472656 C 46.054688 14.472656 46.785156 13.679688 47.089844 13.300781 L 45.839844 12.429688 C 45.839844 12.429688 42.675781 12.757812 42.394531 12.765625 C 42.671875 12.691406 46.394531 11.722656 46.394531 11.722656 L 47.09375 10.722656 " fill-opacity="1" fill-rule="nonzero"/></g><path fill="#000000" d="M 36.988281 36.988281 C 37.253906 36.660156 37.507812 36.339844 37.769531 36.015625 C 38.703125 36.65625 39.628906 37.296875 40.570312 37.945312 C 40.453125 38.085938 40.347656 38.21875 40.230469 38.347656 C 40.214844 38.367188 40.152344 38.355469 40.117188 38.339844 C 39.546875 38.097656 38.976562 37.851562 38.410156 37.601562 C 37.941406 37.402344 37.472656 37.199219 36.988281 36.988281 " fill-opacity="1" fill-rule="nonzero"/><path fill="#000000" d="M 10.257812 36.015625 C 10.523438 36.339844 10.777344 36.660156 11.039062 36.984375 C 10.996094 37.003906 10.960938 37.023438 10.925781 37.039062 C 9.921875 37.472656 8.921875 37.902344 7.921875 38.339844 C 7.839844 38.378906 7.796875 38.363281 7.746094 38.292969 C 7.660156 38.179688 7.5625 38.066406 7.460938 37.945312 C 8.398438 37.300781 9.320312 36.660156 10.257812 36.015625 " fill-opacity="1" fill-rule="nonzero"/><path fill="#000000" d="M 9.605469 35.195312 C 9.753906 35.382812 9.898438 35.5625 10.046875 35.75 C 9.113281 36.394531 8.1875 37.03125 7.253906 37.679688 C 7.105469 37.5 6.964844 37.320312 6.808594 37.132812 C 7.742188 36.488281 8.667969 35.847656 9.605469 35.195312 " fill-opacity="1" fill-rule="nonzero"/><path fill="#000000" d="M 38.425781 35.195312 C 39.359375 35.84375 40.285156 36.484375 41.21875 37.132812 C 41.070312 37.316406 40.929688 37.492188 40.777344 37.679688 C 39.847656 37.039062 38.921875 36.398438 37.984375 35.75 C 38.128906 35.566406 38.273438 35.386719 38.425781 35.195312 " fill-opacity="1" fill-rule="nonzero"/><path fill="#000000" d="M 38.632812 34.945312 C 38.796875 34.742188 38.953125 34.550781 39.113281 34.351562 C 39.988281 35.070312 40.855469 35.78125 41.734375 36.503906 C 41.625 36.632812 41.527344 36.757812 41.421875 36.890625 C 40.492188 36.242188 39.570312 35.597656 38.632812 34.945312 " fill-opacity="1" fill-rule="nonzero"/><path fill="#000000" d="M 8.917969 34.351562 C 9.082031 34.554688 9.234375 34.746094 9.394531 34.945312 C 8.464844 35.59375 7.539062 36.242188 6.609375 36.890625 C 6.507812 36.761719 6.40625 36.640625 6.296875 36.503906 C 7.171875 35.785156 8.039062 35.070312 8.917969 34.351562 " fill-opacity="1" fill-rule="nonzero"/></svg>