<svg width="614.44mm" height="66.675mm" version="1.1" viewBox="0 0 614.44 66.675" xmlns="http://www.w3.org/2000/svg">
 <g transform="translate(72.469 -110.86)">
  <g transform="scale(.26458)" fill="#1d1929" style="shape-inside:url(#rect236);white-space:pre" aria-label="IISP MUN 2023">
   <path d="m-227.4 665.01c-2.1-24-2.7-36.9-2.7-61.8v-116.4c0-24.9 0.6-37.8 2.7-61.8h-46.5c2.1 24 2.7 36.9 2.7 61.8v116.4c0 24.9-0.6 37.8-2.7 61.8z"/>
   <path d="m-145.8 665.01c-2.1-24-2.7-36.9-2.7-61.8v-116.4c0-24.9 0.6-37.8 2.7-61.8h-46.5c2.1 24 2.7 36.9 2.7 61.8v116.4c0 24.9-0.6 37.8-2.7 61.8z"/>
   <path d="m-14.999 671.01c38.1 0 70.5-19.8 70.5-61.2 0-39-27.9-57.9-81.9-95.7-40.2-27.9-55.5-38.1-55.5-58.8 0-18 14.7-30.6 39.3-30.6 38.7 0 54.3 31.8 61.5 63.3l30.3-12.3c-24.3-39-52.5-56.7-89.7-56.7-36.3 0-64.5 17.4-64.5 50.7 0 31.5 18.9 46.5 64.8 79.5 46.8 33.6 72.6 50.4 72.6 75 0 27-18.3 41.1-44.7 41.1-39.6 0-69-36.6-77.1-87l-30.3 16.2c23.7 56.7 59.1 76.5 104.7 76.5z"/>
   <path d="m131.1 665.01c-2.1-24-2.7-36.9-2.7-61.8v-49.2h21.6c55.8 0 104.7-11.4 104.7-64.5s-48.9-64.5-104.7-64.5h-65.4c2.1 24 2.7 36.9 2.7 61.8v116.4c0 24.9-0.6 37.8-2.7 61.8zm-2.7-234.3h21.3c32.7 0 63.3 12 63.3 58.8s-30.6 58.8-63.3 58.8h-21.3z"/>
   <path d="m495.3 671.01 96-231.6v163.8c0 24.9-0.6 37.8-2.7 61.8h46.5c-2.1-24-3-36.9-3-61.8v-116.4c0-24.9 0.9-37.8 3-61.8h-43.8l-80.7 191.1-85.8-191.1h-47.4c2.1 24 2.7 36.9 2.7 61.8v116.4c0 24.9-0.6 37.8-2.7 61.8h11.4c-2.4-24-3-36.9-3-61.8v-162.9l102 230.7z"/>
   <path d="m773.1 671.01c54.9 0 81-29.4 81-108v-76.2c0-24.9 0.6-37.8 2.7-61.8h-11.1c2.1 24 2.7 36.9 2.7 61.8v76.2c0 73.5-23.1 99-68.4 99-47.4 0-64.8-28.5-64.8-99v-76.2c0-24.9 0.6-37.8 2.7-61.8h-46.5c2.1 24 2.7 36.9 2.7 61.8v76.2c0 85.8 39.9 108 99 108z"/>
   <path d="m899.4 665.01c-2.1-24-2.7-36.9-2.7-61.8v-165.9l0.6 0.3 132.3 227.4h48.6c-2.4-24-3-36.9-3-61.8v-116.4c0-24.9 0.6-37.8 3-61.8h-10.8c2.1 24 3 36.9 3 61.8v165.9l-0.6-0.3-132.6-227.4h-48.3c2.1 24 2.7 36.9 2.7 61.8v116.4c0 24.9-0.6 37.8-2.7 61.8z"/>
   <path d="m1372.8 665.01 14.1-41.7c-34.5 15.3-55.2 16.8-88.5 17.1l-84.3 0.6c20.1-44.7 48.9-60.6 93.6-79.8 33.9-17.1 72.9-35.4 72.9-78 0-42.9-43.2-64.2-87.6-64.2-43.8 0-84.9 21.9-84.9 57.3 0 23.4 13.5 41.7 36.6 54.3l25.8-23.7c-18.3-6.6-31.5-19.2-31.5-38.7 0-23.7 20.1-43.5 50.7-43.5 30.3 0 49.2 21.3 49.2 53.1 0 33-22.2 53.1-54.6 76.8-33.6 25.2-67.8 47.7-81.6 110.4z"/>
   <path d="m1522.5 671.01c62.7 0 112.2-50.4 112.2-126 0-75.3-49.5-126-112.2-126-63.3 0-112.5 50.7-112.5 126 0 75.6 49.2 126 112.5 126zm0-5.7c-51.3 0-70.8-51-70.8-120.3 0-69 19.5-120.3 70.8-120.3 51 0 70.5 51.3 70.5 120.3 0 69.3-19.5 120.3-70.5 120.3z"/>
   <path d="m1828.5 665.01 14.1-41.7c-34.5 15.3-55.2 16.8-88.5 17.1l-84.3 0.6c20.1-44.7 48.9-60.6 93.6-79.8 33.9-17.1 72.9-35.4 72.9-78 0-42.9-43.2-64.2-87.6-64.2-43.8 0-84.9 21.9-84.9 57.3 0 23.4 13.5 41.7 36.6 54.3l25.8-23.7c-18.3-6.6-31.5-19.2-31.5-38.7 0-23.7 20.1-43.5 50.7-43.5 30.3 0 49.2 21.3 49.2 53.1 0 33-22.2 53.1-54.6 76.8-33.6 25.2-67.8 47.7-81.6 110.4z"/>
   <path d="m1960.2 671.01c50.4 0 88.2-30.6 88.2-75.3 0-46.5-34.5-65.4-77.4-62.1 30.3-12 57.9-30 57.9-63.9 0-32.1-30.3-50.7-69-50.7-43.5 0-71.4 27-84 52.2l30.3 13.8c8.4-33.3 22.2-60.3 52.5-60.3 24.3 0 33.6 17.1 33.6 37.2 0 29.7-12.9 54.9-56.4 78l0.9 5.7c49.8-11.1 72.3 16.2 72.3 50.1 0 34.2-19.2 63-61.5 63-37.8 0-71.7-20.1-78.6-69h-4.8c5.4 54 41.7 81.3 96 81.3z"/>
  </g>
 </g>
</svg>
