<svg xmlns="http://www.w3.org/2000/svg" xmlns:xlink="http://www.w3.org/1999/xlink" width="64" zoomAndPan="magnify" viewBox="0 0 48 48" height="64" preserveAspectRatio="xMidYMid meet" version="1.0"><defs><clipPath id="2b61149e72"><path d="M 0.488281 0 L 47.507812 0 L 47.507812 47.019531 L 0.488281 47.019531 Z M 0.488281 0 " clip-rule="nonzero"/></clipPath></defs><g clip-path="url(#2b61149e72)"><path fill="#010101" d="M 14.394531 0 C 10.546875 0.078125 7.289062 1.492188 4.617188 4.242188 C 1.863281 6.914062 0.488281 10.175781 0.488281 14.023438 L 0.488281 33.113281 C 0.488281 36.960938 1.863281 40.261719 4.617188 43.011719 C 7.289062 45.761719 10.546875 47.136719 14.394531 47.136719 L 33.488281 47.136719 C 37.414062 47.136719 40.710938 45.761719 43.382812 43.011719 C 46.136719 40.339844 47.511719 37.039062 47.511719 33.113281 L 47.511719 14.023438 C 47.511719 10.175781 46.136719 6.914062 43.382812 4.242188 C 40.710938 1.492188 37.414062 0.078125 33.488281 0 L 14.394531 0 M 7.917969 7.546875 C 9.722656 5.738281 11.878906 4.832031 14.394531 4.832031 L 33.488281 4.832031 C 36.003906 4.832031 38.199219 5.738281 40.082031 7.546875 C 41.890625 9.347656 42.796875 11.507812 42.796875 14.023438 L 42.796875 33.113281 C 42.796875 35.628906 41.890625 37.828125 40.082031 39.707031 C 38.199219 41.519531 36.003906 42.425781 33.488281 42.425781 L 14.394531 42.425781 C 11.878906 42.425781 9.722656 41.519531 7.917969 39.707031 C 6.109375 37.828125 5.203125 35.628906 5.203125 33.113281 L 5.203125 14.023438 C 5.203125 11.507812 6.109375 9.347656 7.917969 7.546875 M 39.023438 11.542969 C 39.023438 10.761719 38.75 10.054688 38.199219 9.425781 C 37.652344 8.878906 36.984375 8.605469 36.203125 8.605469 C 35.410156 8.605469 34.699219 8.878906 34.074219 9.425781 C 33.527344 10.054688 33.25 10.761719 33.25 11.542969 C 33.25 12.335938 33.527344 13.003906 34.074219 13.554688 C 34.699219 14.101562 35.410156 14.375 36.203125 14.375 C 36.984375 14.375 37.652344 14.101562 38.199219 13.554688 C 38.75 13.003906 39.023438 12.335938 39.023438 11.542969 M 11.796875 23.570312 C 11.796875 26.945312 12.976562 29.816406 15.335938 32.171875 C 17.695312 34.53125 20.5625 35.710938 23.941406 35.710938 C 27.320312 35.710938 30.1875 34.53125 32.546875 32.171875 C 34.90625 29.816406 36.085938 26.945312 36.085938 23.570312 C 36.085938 20.191406 34.90625 17.324219 32.546875 14.964844 C 30.1875 12.605469 27.320312 11.425781 23.941406 11.425781 C 20.5625 11.425781 17.695312 12.605469 15.335938 14.964844 C 12.976562 17.324219 11.796875 20.191406 11.796875 23.570312 M 16.511719 23.570312 C 16.511719 21.523438 17.222656 19.757812 18.640625 18.265625 C 20.128906 16.847656 21.894531 16.140625 23.941406 16.140625 C 25.988281 16.140625 27.753906 16.847656 29.242188 18.265625 C 30.660156 19.757812 31.371094 21.523438 31.371094 23.570312 C 31.371094 25.613281 30.660156 27.382812 29.242188 28.871094 C 27.753906 30.289062 25.988281 31 23.941406 31 C 21.894531 31 20.128906 30.289062 18.640625 28.871094 C 17.222656 27.382812 16.511719 25.613281 16.511719 23.570312 Z M 16.511719 23.570312 " fill-opacity="1" fill-rule="nonzero"/></g></svg>