<svg xmlns="http://www.w3.org/2000/svg" xmlns:xlink="http://www.w3.org/1999/xlink" width="64" zoomAndPan="magnify" viewBox="0 0 48 48" height="64" preserveAspectRatio="xMidYMid meet" version="1.0"><defs><clipPath id="a2e35c3284"><path d="M 0.488281 0 L 47.507812 0 L 47.507812 47 L 0.488281 47 Z M 0.488281 0 " clip-rule="nonzero"/></clipPath></defs><g clip-path="url(#a2e35c3284)"><path fill="#000000" d="M 35.691406 0.0195312 L 12.273438 0.0195312 C 5.785156 0.0195312 0.488281 5.3125 0.488281 11.800781 L 0.488281 35.257812 C 0.488281 41.707031 5.785156 47 12.273438 47 L 35.726562 47 C 42.214844 47 47.511719 41.707031 47.511719 35.21875 L 47.511719 11.800781 C 47.472656 5.3125 42.179688 0.0195312 35.691406 0.0195312 Z M 16.152344 38.050781 L 9.4375 38.050781 L 9.4375 18.664062 L 16.152344 18.664062 Z M 12.757812 15.679688 C 10.855469 15.679688 9.328125 14.152344 9.328125 12.25 C 9.328125 10.347656 10.855469 8.820312 12.757812 8.820312 C 14.660156 8.820312 16.1875 10.347656 16.1875 12.25 C 16.152344 14.152344 14.621094 15.679688 12.757812 15.679688 Z M 38.523438 38.050781 L 32.929688 38.050781 L 32.929688 28.65625 C 32.929688 26.382812 32.632812 23.472656 29.539062 23.472656 C 26.367188 23.472656 25.847656 25.933594 25.847656 28.507812 L 25.847656 38.050781 L 20.253906 38.050781 L 20.253906 18.664062 L 25.472656 18.664062 L 25.472656 21.273438 L 25.621094 21.273438 C 26.441406 19.78125 28.34375 18.625 31.328125 18.625 C 37.480469 18.625 38.5625 22.167969 38.5625 27.425781 L 38.5625 38.050781 Z M 38.523438 38.050781 " fill-opacity="1" fill-rule="nonzero"/></g></svg>