<svg width="981.27" height="507.5" version="1.1" viewBox="0 0 259.63 134.28" xmlns="http://www.w3.org/2000/svg">
 <g transform="translate(-13.062 -75.737)">
  <g fill="#999">
   <path d="m26.225 110.53-3.638 3.7703-9.525 3.9688 7.0776-3.9688 1.3891-2.249-2.7781 0.46303-0.39688-1.7198-2.3151 0.92604-1.3891-3.3073 1.7859-2.0505h2.1828l0.39688-0.99218-2.8443 0.13229-1.9182-2.3151 1.7859-0.85989 1.9182 0.85989 0.19844-0.85989-2.7781-2.4474v-0.92604l1.7198 0.26458 1.3229-1.3891 4.6964-1.3891 7.4083 1.6536 1.8521-0.33073 4.6302 1.5875 1.7198-0.66146 0.52917 0.06615 3.7703-1.1906 1.5214 0.99219 1.9844-0.33073 6.2177 1.5875v1.1906l3.9688-0.0662 2.249-1.3229 2.3151 1.3891 2.3812-0.19844 0.33073-0.79375 2.3151 0.1323 0.13229 1.1906 1.6536-1.5875-1.3891-1.3229-0.7276-0.26458-0.13229-1.5214 2.1167-0.06615 1.1245 1.2568 0.33073 0.8599 1.4552 0.13229 0.59531 1.2568 0.92604 1.3229 0.59531-1.7859 0.7276-1.0583h2.3151l0.06615 0.99219 0.33073 1.5875-0.46302 1.1906-1.3229 0.8599-1.0583-0.0662-1.3891 1.3229-0.33073 1.6536-1.8521 1.1245-1.4552 1.3891-1.6536 1.9182 0.13229 1.9844 1.3891 1.1245 1.3891 0.59531 1.9182 0.79375 3.0427 1.1245 1.3229 0.85989 0.59531 1.9844s0.79375 0.92604 1.0583 0.8599c0.26458-0.0661 1.1245-0.99219 1.1245-0.99219l-0.39688-2.1167-0.52917-0.46302 1.7859-0.79375 0.39688-1.6536-0.79375-1.1906-0.19844-0.99219 0.19844-1.7198-0.19844-1.3891 0.33073-0.66146 1.4552 0.46302 1.1906-0.19844 1.7198 1.0583 1.6536 1.2568-0.52917 2.0505 2.0505 0.85989 1.2568-2.1167 1.0583 0.79375 2.0505 2.9104 3.175 2.1828 0.66146 2.3151-2.8443 1.8521-4.6302 0.0661s-4.6964 3.7042-3.9688 3.3073c0.7276-0.39688 4.8948-2.3812 4.8948-2.3812l0.26458 2.9104-3.9026 2.249-0.7276 2.0505-2.8443 1.3891-0.59531 3.4396-2.5135 2.5135-1.7198 2.0505 0.92604 4.4979-0.92604 0.13229-1.4552-4.1672-4.2995 0.46302-1.7198 0.46302-1.7198-0.26458-2.3151 1.4552 0.13229 1.3891-0.66146 3.3073 1.9844 2.712 2.5797 0.0662 1.5214-2.1167 1.8521-0.13229-0.59531 2.249-0.79375 1.5875 3.638 0.92604 0.39688 3.9026 3.3073 0.52917-1.9182 1.2568-3.2411-2.1167-0.7276-1.9844-2.712-0.72761-2.3812-1.5875-1.9844 0.46303-6.2839-3.3734-0.33073-2.4474-4.8948-6.6146-1.1245-0.79375 2.9104 6.8792-4.7625-7.7391-3.2411-1.9844-1.7859-3.638-0.52917-3.1089 0.52917-3.3073-0.92604-2.3812-1.7198-1.9182-2.5135-3.7042-5.887-5.424-3.638-0.92605-5.0271 1.2568z"/>
   <path d="m53.84 99.616-0.3638-0.46302-1.6867-0.19844-0.66146-1.1245 3.2742 0.33073 0.03307-0.56224-0.82682-0.09922-3.0096-0.03307s-0.66146-0.29766-0.46302-0.49609c0.19844-0.19844 1.4552-0.66146 1.4552-0.66146l-1.0914-0.26458-0.89297-0.92604 2.5466-1.4883 0.79375 0.76068 0.06615 0.39688 0.76068-0.59531 1.0914 0.29766-0.26458 0.82682 1.3229-0.33073-0.49609-0.92604 0.33073-0.06615 1.5544 1.9844 0.79375 0.06615-0.69453-2.1497 1.1906-0.03307 1.3891 2.5135-0.23151 0.49609 2.7781 1.4883 0.03307 0.62838-0.95912 0.03307 0.29766 0.39688-1.356 0.33073-1.5875-0.99219-1.1906 0.56224z"/>
   <path d="m73.305 96.904-0.8599-0.66146-0.89297-0.33073 0.59531-1.6536 0.95911-0.89297 1.819-0.23151-0.95912 1.5214 0.29766 1.0583 0.89297 0.95912 0.29766-1.0583-0.49609-0.95911 1.4883-1.4552 1.2237 0.42995 0.59531 0.99219-0.23151 1.2568 0.76068-0.52917 0.92604-0.09922 0.62838-0.62838 1.4221 0.33073 0.69453 0.69453 0.7276 0.19844 1.6536 0.49609 0.66146 0.69453 1.5875 0.29766 0.69453 0.7276 0.29766 0.52917-0.52917 0.52917 0.59531 1.1245 0.99219 0.62839 1.1245 0.46302 1.2898 0.69453 0.59531 0.4961-0.7276 0.92604-0.76068 1.2898-0.82682 0.13229-0.82682-1.1576-0.92604-1.5544-0.56224 0.46302 0.26458 1.3229 0.79375 0.95912 0.76068 0.79375 0.52917 0.95911-0.3638 0.79375-0.7276-0.13229-2.0836-0.66146 1.2568 1.1245 0.79375 0.7276-0.82682-0.3638-1.0914-0.0661-1.9513-0.82682-0.62838-0.92604-1.1576-1.0253-0.62838-0.33073-1.0914 0.85989-0.59531-0.16536-0.13229-1.0914 0.8599-0.33073 1.5544-0.0331-0.19844-1.0253 1.6536-1.7859-1.4221-1.6867-1.3229-0.62838-1.0914-0.46302-1.0253-1.0253s-1.2568-0.8599-0.76068-0.26458c0.49609 0.59531 0.59531 0.89297 0.59531 0.89297l-0.7276 0.09922-1.6536 0.2315-0.69453-0.99218-2.9435 0.59531-1.1906-1.0914z"/>
   <path d="m64.131 96.39-3.1337-1.8709 1.7306-0.28063 0.14032-0.32741-0.98222-0.70158 1.637-0.79513 1.5903 0.28063-0.18709 0.88867-0.65481 0.8419h0.98222l0.28063 0.93544-0.93544 0.8419z"/>
   <path d="m69.23 91.292-0.23386-1.5903-0.74835-1.2628 1.4499-0.42095 0.70158 1.3096 0.79513 0.8419 1.3096-0.3274 0.60804 0.3274 2.2451-0.8419 1.2161 0.37418 0.93544 0.42095 0.42095 1.0758-0.42095 0.79513-2.058 0.09355-0.32741-0.74836-0.28063 0.56127-3.1805 0.09354-0.23386-0.70158-0.8419 0.79513z"/>
   <path d="m53.608 92.181-0.8419-0.46772 2.8531-1.029-3.0402 0.23386-0.46772 0.28063-0.65481-0.09354-0.79513-0.8419v-1.029l0.93544-0.70158 1.7306-0.65481 0.56127 1.029 1.0758 0.74836 1.3096 0.65481 0.5145-0.09354-0.70158-1.0758-0.23386-0.98222 1.029-0.65481 1.2628 2.0112 0.42095-0.8419 0.8419 0.56127-0.23386 1.4032-0.88867 0.79513-0.88867 0.09355-0.88867-0.42095-2.7128 1.1225z"/>
   <path d="m62.869 86.241-0.70158-0.46772-2.2918-0.14032 0.28063-0.46772-0.56127-0.5145v-0.65481s0.51449-0.18709 0.74836-0.18709c0.23386 0 1.4499 0.56127 1.4499 0.56127l0.14032 0.37418 0.93544-0.04677 0.60804 0.98222 0.42095 0.60804-0.65481 0.28063z"/>
   <path d="m67.265 91.713-1.1225-0.56127-0.32741-0.42095 0.79512-0.93544 0.65481-0.18709 0.23386 0.98222s0.93544 0.5145 0.70158 0.88867c-0.23386 0.37418-0.51449 0.56127-0.51449 0.56127z"/>
   <path d="m69.697 85.071-1.4032 0.32741-1.4032-0.65481s-1.9644-0.3274-0.98222-0.70158c0.98222-0.37418 1.3096-0.60804 1.3096-0.60804l-0.93544-0.23386-1.9644 0.09355-0.37418-1.1225 0.14032-0.88867s0.56126-0.5145 0.98222-0.23386c0.42095 0.28063 0.79513-0.09354 0.79513-0.09354l-0.60804-0.79513 1.1225-1.029s0.56127-0.8419 0.65481-0.09354c0.09355 0.74835 0.56127 1.5903 0.56127 1.5903l1.8241 0.46772 1.029 0.51449 0.42095 0.14032 0.42095 1.3564h0.70158l-0.88867 1.029-0.70158 0.88867z"/>
   <path d="m87.33 76.699-1.2161 0.74836 1.9644-0.79512 1.2161 0.23386 0.8419 0.74836 1.4032-0.14032-0.51449 1.1225-2.9466 0.42095-2.5725 1.3096 2.8531-0.8419-0.5145 0.88867-1.6838 1.2628-1.4499 0.79513-1.9177 0.18709 1.2628 0.23386-0.79513 0.74836-1.1693-0.42095-1.2628 0.14032-0.74836 0.60804 1.5435 0.37418-0.74835 0.28063-0.98222-0.04677 1.5903 0.28063-0.60804 0.79512-0.88867-0.14032 1.1693 0.28063-0.88867 0.5145-0.98222-0.04677-0.74836 0.8419-1.8241 0.09354 2.5725 0.70158-2.1983 0.88867-0.98222-0.79513-1.1225 0.37418-0.98222 0.09355-0.98222-0.04677-1.9177-0.28063-0.23386-0.65481 1.8241-0.28063-0.56127-0.56127 0.98222-0.70158 0.70158 1.3564 1.029-0.79513-1.0758-0.74835-0.98222-0.23386 0.60804-1.9176 1.637 1.3564 0.28063-0.74835-0.74836-1.0758-0.8419-0.93544 0.74836-0.60804 1.1225 0.88867-0.04677-1.0758-1.1225-0.09354-0.88867 0.28063-0.8419-0.65481-0.51449 0.09354-0.93544-0.37418 0.18709-0.46772-1.1225-0.60804-0.3274-0.51449 1.1693-0.98222 1.8709 0.04677 2.0112 0.23386s0.14032-0.51449 0.51449-0.60804c0.37418-0.09354 1.9177-0.93544 1.9177-0.93544l1.7306-0.32741 0.74836 0.60804 0.04677-0.56127 2.2918-0.32741 1.5435 0.04677h1.2628z"/>
   <path d="m93.495 89.958 0.79375 1.6536 0.92604 1.5875-0.52917 1.1245 0.8599 1.6536 1.5214 0.52917s0.7276-0.66146 1.0583-0.33073 1.4552 2.3812 1.4552 2.3812l-1.1245 1.1906-1.7198 1.4552-0.26458 1.0583 0.66146 1.3229 0.7276 1.8521s0.06615 1.5214 0.26458 1.8521c0.19844 0.33072 2.1828 2.4474 2.1828 2.4474l1.6536 0.92604 1.8521 0.0661 0.92604-2.1167 1.1906-2.0505v-1.5214l1.5875-1.3229h1.7198s1.1245-1.0583 1.3229-1.3229c0.19843-0.26459 0.85989-0.8599 1.3229-1.4552s1.5214-1.1906 1.5214-1.1906 1.1906-0.06615 1.4552-0.26458c0.26459-0.19844 1.5875-0.92604 1.5875-0.92604l1.4552-0.79375-1.1906-0.92604-0.26459-1.9182s0.52917 1.6536 0.79375 1.8521c0.26459 0.19844 1.7198 0.8599 1.7198 0.8599l0.99218-0.79375-0.39687-0.99219-1.2568-0.59531s-1.0583-1.1906-0.66146-0.92604c0.39687 0.26458 1.3891 0.99219 1.3891 0.99219l0.26459-1.0583-0.33073-0.52917 1.2568-1.1906s0.7276-0.8599 0.85989-1.4552c0.13229-0.59531-0.33073-1.8521-0.33073-1.8521l-0.46302-0.79375-1.2568-0.59531 1.9182-0.33073 1.4552-0.59531-1.9844-0.66146-0.0661-0.92604 0.19844-0.39688 1.0583-0.7276-0.59531-0.79375 0.46302-0.79375 0.85989-0.19844 1.3891-0.79375 1.1245-0.92604 0.99218-0.46302 1.1245-0.66146-2.1167-1.3229-1.4552 1.0583-1.7198 0.33073-2.3812 1.2568-1.2568 0.39688 2.1828-2.6458-0.46302-0.46302-1.3891 0.92604-1.2568-1.2568-2.7781-0.26458 5.7547-0.13229-3.3073-1.1245-2.5797-0.59531-3.8365 0.13229-2.5797 0.13229-1.3229 0.13229-4.101 0.19844 0.26459 2.0505-3.7042-0.92604v1.6536l-2.5797-1.6536-3.175 0.7276 1.4552 2.0505-1.9182-1.5214-0.99219 1.3229-0.99219 0.8599h-1.1245l-0.8599 0.52917-1.1906 1.3229 1.6536 0.46302-1.1245 1.5214-2.3151 0.8599-1.7859 0.19844-0.06615 1.3891 2.3151-0.26458-0.8599 0.79375 0.13229 1.1245 1.9182 0.8599 2.1828-1.1245 1.9844 0.33073z"/>
   <path d="m78.149 169.2-0.39688-0.99218-1.2568-1.1245 0.06615-1.6536 0.99219-0.26458-0.59531-1.0583 1.1906-1.7198 1.5214-1.3891 0.06615-1.6536-0.7276-1.1906 0.99219-1.8521 1.5214-1.9844 1.9844-0.7276 0.26458 1.9182 0.99219-0.0661 0.19844-1.3891h1.1245l1.0583 1.1906 1.5214-0.33073 1.5214-0.66146 1.0583 0.99219 0.19844 1.1245s0.46302 0.79375 0.7276 0.79375 0.8599 0.99219 0.8599 0.99219l1.1906 0.79375 1.8521-0.39688 2.1167 1.1906 0.13229 1.2568s0.92604 0.52917 0.66146 0.8599c-0.26458 0.33072-1.2568 1.7859-1.2568 1.7859l1.2568 0.92604 0.8599-0.66145 1.5875-0.79375 1.3229 0.26458 0.13229 1.3229 1.5875-0.0661s0.99219-0.39687 1.2568-0.19844c0.26458 0.19844 1.0583 0.72761 1.0583 0.72761l0.8599 0.46302 0.66146 0.79375 1.9182 0.33073s0.19843 1.4552 0.13229 1.7859c-0.0662 0.33073-0.66146 2.249-0.66146 2.249s-0.79375 0.46302-0.99219 0.99219-0.99219 1.1245-1.0583 1.8521c-0.0661 0.72761-0.39688 2.7781-0.39688 2.7781s-0.26458 0.92604-0.59531 1.7859c-0.33073 0.85989-1.2568 2.3812-1.2568 2.3812l-2.5135-0.0661-2.3812 1.8521-0.19844 2.3812-1.7859 2.5136-1.8521 1.9844-1.5214 0.92604-1.7198-0.52916 0.66146 1.9844-1.5214 1.9182-2.5797 0.19844 0.33073 1.6536h-1.8521l0.39688 1.3891-0.52917 1.2568-0.33073 1.3891-1.4552 0.92604 1.0583 1.1906-0.13229 1.4552-1.5214 0.8599 0.13229 1.1906-0.66146 0.92604 0.8599 1.5875 1.0583 1.2568 0.7276 0.39687-0.99219 0.59532-1.3229 0.19843-1.3891-0.52916-1.6536-1.3891-1.5875-2.3151-0.7276-3.5057s0.66146-0.7276 0.8599-1.2568c0.19844-0.52917 0.99219-2.9104 0.99219-2.9104l-0.13229-1.9844 0.06615-3.4396 0.92604-2.0505 0.66146-4.4979 0.06615-3.0427 1.0583-2.249 0.13229-3.638-4.6302-3.638-0.26458-1.7198z"/>
   <path d="m134.16 158.86-1.4967-0.74836-1.8709 0.46772-0.8419 0.74836-1.4032-1.2161-1.3096-0.37417-0.74836-1.5435-0.14032-1.1225-1.0758-1.0758-1.4032-1.1693-0.74836-1.5435 0.56127-1.4032 0.51449-2.8063-0.65481-1.3096 0.65481-0.88867 1.2628-2.4322 0.93545-0.88868 0.23386-0.79512 1.8241-1.2161 0.37418-1.4032 1.029-1.5903 1.4032-1.029 0.70158-1.1225 1.1693 0.32741 1.1225-0.0936 1.1225-0.0935 1.8709-0.60804 1.3096-0.3274 2.4322-0.0935 2.5257-0.3274 0.14032 0.56126 0.23386 1.0758-0.65481 0.98222 0.88867 0.93544 1.1693 0.5145 0.8419-0.18709 1.029 0.65481 0.65481 0.51449 1.2628 0.70158 1.3564 0.0468 0.18709-1.0758 1.4032-1.0758 0.42095 0.37417 1.0758 0.42095 1.029 0.23387 1.637 0.51449h2.058l0.98222-0.37418 0.8419 0.23386 1.1225-0.8419 0.93544-3.7885-1.9644-0.37418-1.7773 0.65481-0.93544-0.37418-1.6838 0.28063-0.74836-1.8709-0.18709-1.4032 1.029-1.4032h1.3096l1.8709-0.18709 1.4032-0.18709 2.058 0.46772 0.74835 0.18709 1.8709 0.0935 1.3096 0.37417 1.5902 1.2161 2.2451 0.93544 1.1225-0.28063-0.0935 0.8419 1.2161 0.74836 1.4967 0.56126 1.4967-1.3096 1.5903-0.28063 1.8709 0.56126 1.3096 1.4967-0.37418 1.3096-0.28063 2.2451 0.46772 1.4032 0.65481 2.1515-0.0935 1.1225-0.46772 0.37418-1.5902-0.28063-1.4032-0.74836-1.3096-0.93544-0.56127 0.37418-2.1515-0.93545-1.3096-1.029-1.3096-0.18709-0.0935 1.4967 1.5902 1.5902 1.7773 1.4032h1.6838l0.8419-1.4032 0.65481 1.6838 1.5903 1.2161 0.56126 0.84189-1.3096 1.3096-1.4967 1.7774-1.4032 0.74835-1.7774 0.28064-0.28063 1.029-3.087 1.3096h-1.9644l-1.2161-2.6192-0.74835-1.9644-1.4032-1.8709-2.058-2.6192-1.3096-2.8999-1.1225 0.28063 0.74836 2.9934 1.4967 1.6838 0.65481 2.4322 1.3096 1.8709 0.93544 1.6838 1.6838 2.2451 1.1225 1.2161 3.3676-0.8419 0.93544-0.46773v2.8063l-1.4967 2.058-1.5902 2.058-1.3096 1.3096-1.6838 0.8419-1.2161 2.058-0.56126 1.3096-0.0936 2.2451 0.74836 1.9644 0.0935 1.9644v1.4967l-0.8419 1.3096-1.1225 0.8419-2.2451 1.4032 0.56126 3.7418-2.058 1.3096-0.28064 2.1515-0.93544 1.2161-2.5257 2.6192-3.3676 1.029-2.5257 0.28064-1.3096-1.8709 0.46772-1.029-1.4032-2.3386-0.8419-1.2161-0.56127-4.2095-2.1515-3.6482 1.5902-4.3966-0.0935-3.5547-1.4967-2.8063-1.4032-1.5902 0.65481-2.9934-0.65481-1.4032h-2.6192l-0.8419-0.93544z"/>
   <path d="m131.73 133.79-0.51449-0.51449-1.7306-0.14031v-1.3096l-0.42095-0.28063 0.65481-1.6838 0.14032-1.3096-0.74836-0.88867 0.98222-0.42095 1.7306 0.14032 2.8063 0.28063 0.74835-2.666-1.1225-0.60803 0.0468-0.60804-1.6838-0.8419-0.0468-0.42095 0.88867-0.42095 1.1693 0.23386-0.0935-0.98221 1.4967 0.28063 0.0468-0.42095 1.2628-0.74836 0.0468-0.37417 0.6548-0.37418 1.0758-1.7773 1.8241-0.46772-0.0936 1.0758-0.51449 0.79512-0.37417 0.98222 0.28063 0.88867 0.23386 0.79513 0.56126-0.0468h0.42095l-0.3274 0.93544-0.0468 0.42095-0.70159 1.2161-0.37417 0.46772-0.23386 0.37418 1.3564-0.42095 0.51449 0.0935 0.79513-0.28063 1.0758-0.56126 0.60804-0.18709 0.98221 0.23386 0.70158 0.42094-0.0935 0.42095-0.88867 0.56127-0.23386 0.65481 0.14032 0.51449 0.60803 0.0936 0.23386 0.93544 0.42095 0.56127 0.8419 0.37417 0.93545 0.14032-0.18709 0.3274 0.60804 0.46773 0.65481 0.46772 0.28063 0.74835-0.51449-0.42095-0.79513-0.28063-0.0468 0.32741 0.65481 0.93544-0.93545 0.93544-0.74835 0.14032-0.0935 1.029-1.5902-1.1225 1.0758-0.14032 1.1225-0.5145-0.0935-0.88867-0.79513-0.74835-0.8419-0.8419-0.98221-0.56127-1.2161-1.1225-0.70158-1.029-1.8241 0.56127-0.74835 0.56127-1.1693-0.28064-0.88867 0.5145 0.0935 1.0758-1.029 0.56126-0.98222 0.65481-0.60803 0.79513 0.51449 0.70158-0.70158 0.79513-1.029 0.56127-0.56127 0.56126-1.1693-0.14032z"/>
   <path d="m130.77 115.39 0.56224-1.1576-0.62839-0.33073 0.19844-0.42995 0.33073 0.3638 0.0331-0.59531 0.0662-0.39687 0.49609-0.46302 1.1906 0.26458-0.46302 0.99219h0.99218l0.52917 0.29765-0.79375 0.8599-0.23151 0.82682 0.52917-0.13229 0.52916 0.52917 0.72761 0.85989 0.46302 0.79375-0.0662 0.69453 1.1576-0.13229 0.23151 0.62839-0.52916 0.62838-0.13229 0.39688 0.3638 0.0662-0.29766 0.52916-1.3891-0.13229-0.23151 0.23151-0.82682 0.0992-0.42995-0.0992-0.33073 0.59532-0.69453 0.0662-0.69453 0.33073 0.52916-0.95912 0.29766-0.62838 0.89297 0.0662 0.13229-0.33073-0.56224-0.0662-0.82682-0.46302 0.79375-0.72761-0.59532-0.26458 0.19844-0.4961 0.72761 0.0992 0.0992-0.92604-0.36381-0.0992 0.39688-0.52916-0.23151-0.29766-0.72761 0.66146-1.0253-0.23151 0.62839-0.39688-0.0331-0.49609h-0.76068z"/>
   <path d="m128.25 119.62-0.0662-0.56224 0.7276-0.85989-0.62838-0.39688-0.16537-0.7276 0.16537-0.0661 0.82682-0.23151 0.19844-0.33073 0.42995-0.46302 0.66146-0.0661 0.69453 0.0661-0.19844 0.42995 0.3638 0.46302-0.29765 0.23151-0.0662 0.56224 0.0992 0.62838-0.29766 0.52917-0.76068 0.3638-0.95911 0.16537-0.49609 0.62838z"/>
   <path d="m118.99 106.28 0.52917-0.29766-0.0331-0.34726-0.16536-0.26458-0.1819-0.34727s-0.69453-0.0827-0.77722-0.0661c-0.0827 0.0165 0.69454-0.24805 0.69454-0.24805l0.1819-0.29765 0.11575-0.28112-0.42995-0.11576-0.77721 0.0992s-0.41341 0-0.39688-0.0661c0.0165-0.0661 0.38034-0.42995 0.38034-0.42995l0.24805-0.57877 0.19844-0.19844 0.21497 0.11575 0.0165-0.29765 0.41341-0.13229 0.24805 0.31419 0.39687 0.38034 0.0496 0.46302-0.0827 0.49609 0.24805 0.21498 0.21497-0.57878 0.31419-0.0165-0.0496 0.21497 0.0827-1.0749 0.29765 0.0827 0.11576 0.59531s0.14882 0.13229 0.16536-0.0496c0.0165-0.1819 0.16537-0.52917 0.16537-0.52917l0.49609-0.28112 0.3638 0.26458 0.24805-0.11575s0.47956 0.0661 0.52917 0c0.0496-0.0662 0.29765-0.39688 0.29765-0.39688l0.44649-0.29765 0.42994 0.38034v0.34726l0.8599 0.39688-0.0331 0.51263s0.33073 0.23151 0.34726 0.31419c0.0165 0.0827 0.26459 0.26458 0.0992 0.49609-0.16536 0.23151-0.3638 0.36381-0.41341 0.4961-0.0496 0.13229-0.1819 0.24804-0.26458 0.41341-0.0827 0.16536-0.11576 0.3638-0.28112 0.38034-0.16537 0.0165-0.94258 0.19844-0.94258 0.19844l-0.44649 0.38033-0.57877 0.23151-0.4961 0.44649s-0.42994-0.21498-0.52916-0.24805c-0.0992-0.0331-0.61185-0.28112-0.61185-0.28112l-0.33073-0.14883-0.61185-0.13229-0.61185 0.13229z"/>
   <path d="m140.35 117.74 0.30402-0.3274 0.44434-0.0935 0.0701 0.53788 0.42096-0.3274 0.35079-0.49111-0.42095-0.53788-0.16371-0.6782s-0.30402-0.42095-0.18709-0.79512c0.11694-0.37418 0.14032-0.5145 0.23387-0.63143 0.0935-0.11693 0.65481-0.44433 0.77174-0.56126s0.88867-0.42095 0.88867-0.42095v0.35079l-0.39757 1.333-0.42095 0.39757-0.0234 0.53788 0.46772 0.6782 0.51449 0.44433 0.35079 0.0234 1.0524-0.3274h0.44433s0.28063 0.39756 0.42095 0.39756 0.81851-0.0702 0.81851-0.0702l1.0758-0.4911 0.39756-0.14032 1.1459-0.0935s-0.23387 0.35079-0.0935 0.37417c0.14032 0.0234 1.0056-0.0468 1.0056-0.0468l-0.0495-0.56461 0.52917-0.26459 0.23151-0.0165 0.23151-0.89297-0.16537-0.47955 0.54571-0.72761 0.66145-0.31419 0.44649 0.5457 0.46302-0.0165 0.14883-0.59531 0.0165-0.57878h-0.52916l-1.2733 0.19844 0.33073-0.66146 0.44648-0.42994 1.5544-0.38034 0.76068-0.13229 1.3229 0.26458 0.28112-0.41341 1.0749-0.1819 0.23151-0.33073-1.0749-0.19844-0.40833-0.54133-0.91206 0.3274s-0.1637-0.0935-0.67819 0.11693c-0.5145 0.21048-1.2161 0.35079-1.2161 0.35079l-0.58465 0.0935-0.37418-0.23386-0.70158-0.51449-0.30402-0.72497-0.0935-1.6136 0.37418-0.60804 0.74836-0.81851s0.44433-0.37418 0.60803-0.51449c0.16371-0.14032 0.42095-0.39757 0.56127-0.53788 0.14032-0.14032 0.65481-0.42095 0.65481-0.60804s-0.0468-0.74836-0.0468-0.74836l-0.58465-0.42095-0.65482-0.0935-0.74835 0.11693-0.77174 0.58465-0.18709 0.79513v0.79513l-0.60804 0.58465-0.51449 0.53788-0.51449 0.18709-0.49111 0.53788-0.46772 0.39756-0.42095 0.42095-0.0234 0.63142-0.0468 0.81852 0.53788 0.56127 0.32741 0.18708 0.28063 0.46773 0.0935 0.23385-0.11693 0.25725-0.0468 0.30402-0.39756 0.44434-0.46772 0.18709s-0.30402 0.1637-0.39756 0.3274c-0.0935 0.16371-0.25725 0.79513-0.25725 0.79513l0.14032 0.60804-0.0234 0.51449-0.42095 0.18709s-0.21048 0.0935-0.56127 0.25725c-0.35079 0.1637-0.35079 0.11693-0.53788 0.28063s-0.25724 0.21047-0.25724 0.21047l-0.63143-0.0468-0.11693 0.0935-0.74836 0.53787s-0.42095 0.25725-0.37417 0c0.0468-0.25724 0.21047-0.84189 0.21047-0.84189l0.5145-0.42095s0.1637-0.39757 0.1637-0.5145-0.25725-0.70158-0.32741-0.81851c-0.0702-0.11693-0.46772-0.60804-0.51449-0.70158-0.0468-0.0935-0.37418-0.86529-0.42095-1.0056-0.0468-0.14032-0.56126-0.74836-0.56126-0.74836l-0.58466 0.39756-0.72497 0.74836-0.44433 0.65481-0.58465-0.28063-0.49111-0.30402s-0.49111-0.0234-0.21048-0.32741c0.28064-0.30402 0.32741-0.42095 0.32741-0.42095l-0.56127 0.14032-0.21047-0.46772 0.14031-0.81851s0.0935-0.42095-0.11693-0.6782c-0.21047-0.25725-0.1637-1.0056-0.1637-1.0056l0.32741-0.56127 0.91206-0.72497 1.5201-1.1927 0.63142 0.30402 0.0234-0.63142 1.0056-0.88867 0.44434-0.39757v-0.58465l0.93544-1.8475 1.1459-1.2628 0.0234-1.029 0.0234-0.46772 0.60804-0.53788 0.70158 0.91206 0.53788-0.46772 0.53788-0.93544 0.8419-0.53788 0.77174 0.63142 0.53788-0.49111 0.98221-0.44433 0.32741-0.32741 1.5435-0.32741 0.70158-0.1637 1.6604-0.07016 0.93544 0.39756 0.63142 0.51449-0.30402 0.44434 0.39757 0.42095h0.70158l0.25725-0.1637 0.39756 0.23386 0.3274 0.25725 0.77175 0.1637 0.95883 0.04677 1.1693 0.21047 0.46772 0.30402 0.28064 0.35079 0.70158 0.23387 0.81851 0.51449 0.60804 0.39756 0.0935 0.53788s-0.25724 0.37418-0.35079 0.5145c-0.0935 0.14031-0.74835 0.60804-0.74835 0.60804l-1.2161 0.18708-1.0992-0.42095-0.91205-0.28063-0.88867-0.25725-0.72497-0.3274h-0.39756l0.21047 0.39756 0.98221 0.49111 0.32741 0.51449 0.1637 0.91206-0.0935 0.51449s0.11693 0.39757 0.11693 0.5145 0.0234 0.42095 0.0234 0.42095l0.28063 0.25724 0.56127 0.14032 0.28063 0.60804 0.56127-0.14032 0.37418-0.28063 0.0468-0.44434-0.49111-0.28063-0.35079-0.35079 0.35079-0.49111 0.93544 0.63143 0.53788 0.0936 0.63143 0.0234 0.49111-0.39757-0.56127-0.60804 0.0702-0.35079 1.1225-0.81851 0.79513-0.79513 0.44433 0.28064 0.37418 0.53788 0.37418 0.0935 0.18709-0.98222-0.16371-0.70158v-0.46772l0.0702-0.74836-0.44433-0.65481 0.84189 0.18709 0.74836 0.14032 0.49111 0.58465-0.63143 0.35079-0.0935 0.58465 0.58465 0.60804 1.0056-0.23386 0.23386-0.63142 0.30402-0.42095 0.0935 0.0234 0.91206-0.49111 0.5145-0.0234 1.3798-0.51449 0.72496-0.39756s0.77175 0.09354 0.49111 0.35079c-0.28063 0.25725-0.35079 0.30402-0.35079 0.30402l0.98222 0.37418 0.58465-0.49111 1.4967-0.44434 0.86528-0.28063 0.0935 0.63142 0.49111 0.09354 0.3274-0.42095 0.0234-0.23386-0.28063-0.74836-0.65481-0.5145 0.86528 0.37418 0.37418 0.42095s0.44433-0.1637 0.53788-0.1637c0.0935 0 1.5902 0.56127 1.5902 0.56127l1.333 0.21048 0.70158 0.1637 0.95883 0.46772-0.44702 2.1529-0.13229 0.79375-2.9766 0.8599-1.1245 1.1245 0.46302 1.0583-0.0661 1.0583-1.4552 1.5875-1.1245 1.1906-0.46302 1.1245v1.0583l-0.92605 1.6536-1.4552 1.3229-1.5875 1.6536-0.8599 1.4552-1.0583 1.4552-0.39688 0.99218-1.3891 0.92605-0.39688 1.3229 0.59532 0.8599 0.7276 1.1245v0.39687l-0.0662 0.52917-0.85989 0.8599-0.46302 1.0583 0.85989 0.99219 0.59532 1.1245 0.46302 1.5875 0.0827 0.62838-1.1741 0.31419-2.1332-0.82682-1.5544-1.2237-1.0253-0.34726 0.34727-0.59531-0.11576-0.71107-0.52917-0.51263-0.46302-0.44649-0.59531-0.3638-0.71107-0.29766-0.59531-0.34726-0.44648-0.21497-1.0253-0.16537-0.56224 0.39688-0.71107 0.28112-0.46302-0.39688-0.42995-0.47956s0.29766-0.33073 0.29766-0.41341c0-0.0827-0.52917-0.62838-0.52917-0.62838l-0.66146-0.36381-1.1576 1.0583-0.29766 0.56224-0.0661 0.56224-0.66146 0.79375-0.69453 0.99218 0.5457 0.47956-0.29766 0.38034-0.33073 0.23151-0.41341 0.42995-0.23151 0.3638-1.0914-0.24805-0.4961-0.0661-0.64492 0.5457-0.31419 0.13229s-0.0331 0.26459-0.0331 0.34727c0 0.0827 0.5457 0.59531 0.5457 0.59531s0.19844 0.21497 0.34726 0.51263c0.14883 0.29766 0.36381 0.21497 0.18191 0.44649-0.18191 0.23151-0.41342 0.51263-0.41342 0.51263s-0.49609 0.1819-0.49609 0.26458c0 0.0827 0.16536 0.62838 0.16536 0.62838l-0.41341-0.0496-0.51263-0.47955-0.3638-0.33073 0.16537-0.4961-0.3142-0.33072s-0.59531-0.87644-0.66146-0.94258c-0.0661-0.0662-0.38033-0.3638-0.39687-0.47956-0.0165-0.11576 0.14883-0.24805 0.0165-0.71107-0.1323-0.46302-0.11576-0.76067-0.11576-0.76067l-0.47956-0.62839s-0.39687-0.24805-0.59531-0.38034-0.76068-0.44648-0.82682-0.49609c-0.0661-0.0496-0.51263-0.33073-0.59531-0.41341-0.0827-0.0827-0.56226-0.41342-0.56226-0.41342l-0.71106-0.77721-0.3142-0.54571-0.0838-0.30318 0.12863-0.51449-0.44434-0.35079-0.64312-0.23386-0.78343-0.1637-0.87698 0.51449-0.42095 0.29232-0.77174 0.24556s-0.52619 0.0935-0.57296 0.0585c-0.0468-0.0351-0.29232-0.0935-0.29232-0.0935l-1.2979 0.45603 0.63142-0.99391 0.5145-0.77174 0.26894-0.86529 0.21047-0.77174-0.12862-0.0585-0.81852 0.0819-0.54957-1.6721 0.36249-0.98222 0.60803-0.90036 0.0468-1.0173z"/>
   <path d="m144.95 85.796-0.32741-0.11693-0.81851-0.1637s-0.21047 0.35079-0.3274 0.23386c-0.11693-0.11693-0.49111-0.53788-0.46773-0.70158 0.0234-0.1637 0.0468-0.51449 0.18709-0.51449h0.53788l0.0702-0.35079s-0.30402-0.04677-0.37418-0.1637c-0.0701-0.11693-0.28063-0.65481-0.28063-0.65481s0.18709-0.37418 0.49111-0.37418 1.029 0.28063 1.1225 0.28063c0.0935 0 1.1693-0.11693 1.1225 0-0.0468 0.11693 0.42095 0.04677 0.42095 0.04677l0.44434 0.88867 0.25725-1.0056 0.23386-0.39757 0.42095 0.21048 0.65481-0.21048s0.0935-0.23386 0.23386-0.3274c0.14031-0.09355 0.18709-0.04677 0.53788-0.35079 0.35079-0.30402 0.28063-0.30402 0.51449-0.37418 0.23386-0.07016 0.72497 0.07016 0.72497 0.07016l0.42095 0.30402 0.6782 0.14032 0.11693-0.23386s0.3274-0.02339 0.56126-0.04677c0.23386-0.02339 0.70158 0.07016 0.70158 0.07016l1.0056-0.21048 0.35079 0.35079 0.79512 0.37418s-0.30402 0.28063-0.35079 0.37418c-0.0468 0.09355-0.46772 0.58465-0.63142 0.60804-0.1637 0.02339-0.65481-0.07016-1.2862 0.30402-0.63142 0.37418-1.4499 0.8419-1.4499 0.8419s-0.23386-0.56127-0.46772-0.6782c-0.23387-0.11693-1.0992-0.37418-1.0992-0.37418l-0.30402-0.23386-0.25725-0.37418-0.4911 0.49111 0.0935 0.28063 0.58465 0.44434 0.72497 0.23386 0.35079 0.30402 0.63143 0.18709s0.23386 0.32741 0.23386 0.44434 1.0758 0.79513 1.0758 0.79513l0.39756 0.25725s0.25725-0.09354 0.14032 0.04677c-0.11693 0.14032-1.0758 0.39756-1.0758 0.39756s-0.18709-0.35079-0.58465-0.28063c-0.39757 0.07016-1.0056 0.09355-1.0056 0.09355l0.44434-0.58465-0.28063-0.53788-0.70159-0.09355-0.51449 0.18709s-0.18709 0.30402-0.28063 0.58465c-0.0935 0.28063-0.16371 0.49111-0.16371 0.49111s-0.37417 0.44434-0.46772 0.53788c-0.0935 0.09355-0.65481 0.6782-0.65481 0.6782s-0.25725 0.18709-0.44433 0.04677c-0.18709-0.14032-0.91206-0.70158-0.91206-0.70158l-0.49111-0.3274s-0.30402 0.09354-0.1637-0.04677c0.14031-0.14032 1.7773-0.65481 1.7773-0.65481l0.11693-0.09355-1.7773 0.44434-0.56127-0.1637 1.3798-0.72497-1.6136 0.07016-0.0702 0.02339z"/>
   <path d="m176.57 97.234s-0.99219-0.7276-1.0914-0.8599c-0.0992-0.13229-0.59531-1.0253-0.59531-1.0253l0.82682-0.99219 1.0583-1.1576s0.79375-0.82682 0.92604-0.95911c0.13229-0.13229 0.69453-0.76068 0.69453-0.76068s0.56224-0.29766 0.69453-0.56224 0.39688-0.49609 0.79375-0.76068c0.39688-0.26458 1.7198-0.46302 2.0836-0.79375 0.36381-0.33073 1.6867-1.0914 1.6867-1.0914l0.95912-0.39688h-0.59531l-0.46303 0.16536-1.7529 0.62839-1.3891-0.03307-0.76068-0.06615-0.92604 0.39688-0.92604 0.69453-0.76068 0.49609-0.62839 0.7276-0.82682 0.69453s-0.49609 0.62839-0.66146 0.82682c-0.16536 0.19844-0.99218 0.95912-0.99218 0.95912l-0.42995 0.52917-0.59532 0.69453-0.0661 0.82682 0.0331 0.82682 0.52917 0.76068 0.85989 0.56224 1.0583 0.09922z"/>
   <path d="m167.97 81.517 1.4266-0.30402 0.60804-0.11693s0.56126 0.07016 0.30402 0.18709c-0.25725 0.11693-1.333 0.44434-1.333 0.44434z"/>
   <path d="m169.28 82.078 1.6136-0.44433-0.0702-0.49111s0.32741-0.11693 0.42095-0.14032c0.0935-0.02339 1.1225-0.04677 1.1225-0.04677l0.21048 0.39757-0.65482 0.37418-0.58465 0.14032-0.63142 0.46772-0.65481 0.37418z"/>
   <path d="m173.13 82.288v-0.37418l0.56127-0.23386h0.49111l0.11693 0.39756-0.39757 0.21048z"/>
   <path d="m174.49 81.049 0.3508-0.44434 0.79512 0.1637 0.58466 0.11693 0.28063 0.25725-0.44434 0.30402-1.0991-0.30402z"/>
   <path d="m178.42 81.563-0.0234-0.42095h1.333l0.32741 0.21048-0.0702 0.23386-1.1927 0.18709-0.51449-0.37418z"/>
   <path d="m176.48 79.88 0.39756-0.58465s1.0758 0.21048 1.0992 0.30402c0.0234 0.09354-0.1637 0.46772-0.1637 0.46772l-0.91206 0.14032z"/>
   <path d="m181.46 81.213 0.25724-0.49111 0.28064-0.30402 0.30402 0.21048-0.0234 0.37418z"/>
   <path d="m171.08 172.05 0.72761 2.712-0.59531 1.2568-1.0583 3.5719-0.85989 2.1828-1.3891 0.72761-0.79375-0.59532-0.39687-1.2568-0.0661-0.85989 0.66146-2.0505 0.0661-1.7859 0.7276-0.8599 1.8521-1.2568z"/>
   <path d="m170.52 125.35 0.47956-0.31419 0.54571-0.44648 0.7276-0.0827 0.38034-0.0331 0.52916 0.1819 0.51263-0.14883-0.0496 0.678 0.0331 0.97565-0.29766 0.1819-0.46302 0.0662-0.5457-0.0496-0.41341 0.49609-0.34727 0.39688 0.57878 0.41341 0.23151 0.59531 0.29765 0.23151 0.3142-0.0165 0.31419 0.26459s-0.0827 0.41341-0.0827 0.47956c0 0.0661 0.0992 0.44648 0.0992 0.5457 0 0.0992 0.19843 0.3638 0.21497 0.24805 0.0165-0.11576 0.33073-0.678 0.33073-0.678l0.41341 0.29766 0.19844 0.41341-0.1819 0.31419-0.33073 0.0992-0.33073-0.0496-0.26459 0.49609 0.14883 0.3142 0.64493 0.41341-0.46303 0.0661 0.19844 0.29766 0.26459 0.0165-0.0165 0.9095 0.0496 0.52917 0.13229 0.0992 0.56224-0.39688 1.571-0.29765 1.9513 0.51263 1.2237 1.4221 0.0661 0.3638-0.64492 3.2577 1.0583 3.3569 0.0165 1.0583-0.33073 0.72761 0.82682-0.0661 1.1576-0.0331 1.0914 0.0661 0.16536-0.28112 0.38034 0.0661 0.0992 0.41341 0.23151 0.23151-0.0165 0.46302 0.47956 0.3638 0.44649 0.24805 0.5457 0.39688 0.44648-0.0992 0.19844 0.33073-0.28112 0.33072h-0.34726l0.0992 0.41342 0.33073 0.34726 0.28112 0.31419s0.21498 0.28112 0.29766 0.26459c0.0827-0.0165 0.52917-0.21498 0.52917-0.21498l0.28112-0.24804 0.13229-0.24805v-0.31419l0.28112-0.46302 0.31419-0.0331s-0.0992 0.41342-0.0992 0.51263c0 0.0992-0.0661 0.39688-0.0496 0.57878s0.0331 0.46302 0.0331 0.46302l0.1819 0.95912 0.0496 0.66145s0.13229 0.54571 0.14882 0.64493c0.0165 0.0992 0.33073 1.0583 0.33073 1.0583l0.54571 1.3725 0.59531 1.6702 0.52917 0.84336 0.39687 1.1576 0.16537 0.52917 0.69453 0.59531 0.47955-0.69453 0.41342-0.0331 0.0661-0.69453 0.69453-0.42995-0.0992-1.0914 0.26459-0.51263-0.0827-1.2898-0.0496-0.97565 0.92604-0.34726 0.7276-0.34727-0.0331-0.44648 0.87643-0.77722 0.62839-0.52916 0.64492-0.79375 1.1245-0.29766 0.0331-1.0749 0.64492-0.0827 1.356-0.14883 0.57878-0.24805 0.66146-0.41341 0.44648 0.3638-0.0165 0.57878 0.51263 1.0914 0.42995 0.0661 0.41341 0.42995-0.19843 0.19844 0.23151 0.23151 0.21497 0.0827 0.21497 0.47956s0.33073 0.19844 0.16537 0.42995c-0.16537 0.23151-0.33073 0.5457-0.33073 0.62838 0 0.0827-0.0496 0.41341-0.0496 0.41341l0.33073 0.33073 0.74602-0.0182 0.74836-0.56127 0.23386-1.0758 0.37418 1.5435 0.28063 1.1693 0.42095 1.5435 0.0468 1.1693-0.0468 0.98222-0.0468 1.1225 0.70159 0.28063 0.79512 1.2628 0.37418 1.4032-0.0468 0.74836 0.98221 0.8419 1.029 0.65481 0.46773-0.23386-0.5145-1.1225-0.0468-1.2161-0.42095-0.88867-1.3564-1.029-0.70159-0.65481-0.51449-0.8419v-1.5902l0.56127-1.2161 0.37417-0.60804 0.56127 0.5145 0.70158 0.79513 0.74836 0.88867 0.88867 1.3564 1.2161-0.42095 0.65481-0.79513 1.1225-0.37418 0.23387-1.0758v-0.32741l-0.42095-1.8241-0.93545-1.2161-1.2628-1.0758 0.23387-1.3096 1.1693-0.93544 1.4032-0.32741 0.51449 0.93544 0.32741-0.79512 2.4789-1.1693h1.3564l1.8709-0.93544 0.79513-1.0758s0.65481-1.0758 0.8419-1.3096c0.18708-0.23386 0.79512-1.4032 0.79512-1.4032l-0.0468-1.2161-0.42095-0.98222s0-0.93544-0.18709-1.1693-0.74835-1.0758-0.74835-1.0758l-0.5145-0.79513 0.0935-0.79513 1.0758-0.46772 1.0758-0.56126-0.37418-0.74836s-0.14032-0.18709-0.65481 0.18709-1.1225 0.51449-1.1225 0.51449l-0.32741-0.56126-0.74835-0.5145-0.14032-0.28063 0.28064-0.18709 0.74835-0.28063 1.1693-0.88867 0.79513-0.42095 0.2808 0.3743-0.79513 0.70158 0.28063 0.65481 1.029-0.93544 1.637 0.23386-0.14031 1.1225 0.0935 0.3274 0.70159-0.0468 0.56126 0.65481-0.18709 0.79513-0.0935 1.4499 1.2628-0.18709 1.0758-1.2628-0.46772-1.3564-0.98222-0.98222-0.14032-0.93544 1.1693-0.60804 0.42095-1.0758 1.1693-1.0758 1.0758 0.0935 1.7306-0.88867 1.4967-1.7773 0.8419-1.2628 0.98222-1.4967 0.56126-0.98222 0.18709-2.3386 0.28063-1.1225-0.51449-0.8419-0.70158-0.79513-1.029 0.23387-0.32741 0.42094-0.51449-0.74835-0.8419-0.32741-0.51449-0.37417 1.1693-0.98222 0.98222-0.79512 1.1693-0.74836 0.93544-0.60804 0.93545-0.88867 1.8709-0.70158 2.9934 0.51449 0.28064-0.74835 0.88867 0.0468 0.0935 0.65481h2.666l1.3564-2.2918 0.79512-1.0758h1.4967l0.37418 1.5903 1.8241-1.0758 0.28063-0.8419 1.2161-0.46772-0.5145 1.2628-0.88867 1.3096-1.4032 1.3564-1.5903 1.4032-1.637 0.60804 0.0935 0.93544-0.60804 0.60804v2.2451l0.8419 2.6192 0.93544-0.8419 0.23387-1.029 1.1225-0.56127 0.18709-1.3564 1.1225 0.18709 0.0468-1.1225 0.51449-0.32741 0.14032-1.2161-0.70158-0.56127 0.74835-1.2628 0.28064-0.79512 1.4032-0.0935 1.3096-0.93545 1.9644 0.0468 0.23386 0.79513 1.5435-1.2628 2.1047-1.1693 1.637-0.79512 1.4967 0.18709v-0.32741l-0.70158-0.88867-0.28064-0.88867-1.5902-0.8419 1.029-0.60804 0.74835 0.42095 1.5902-1.1225-0.42094-0.88867 0.93544-0.0935 0.28063 1.3564 2.2451 0.28063-0.0935 0.93545 1.5903 0.60803 0.18708-1.5435 2.2918-0.28063 0.0935-0.74835-2.3854-1.8241-1.4032 0.60804-0.88867-1.4032-3.1805-1.5435-3.2273-0.74836-3.3676-0.23386 0.60804 1.3564-1.6838 0.3274-1.1693-1.2161-4.0692 0.18709-1.1693-0.04677-0.23386-0.98222-1.4499-1.029-4.0224 0.46772-1.8709-1.6838-2.3854-0.42095-0.88868 0.65481-0.42095-0.88867-2.666-0.3274-1.2161 0.51449 0.88868 1.4032-2.4322-0.18709-1.6838 0.14032-1.2161-0.51449-0.8419 1.4967-1.4499-0.8419-0.98221-2.9466-2.9934-0.56127-0.46772 1.2628h-3.087l-0.98221-0.51449 0.42095-0.60804h-3.274l-0.42095 0.60804-0.37418-0.88867-2.3854 0.51449-2.9466 0.8419 1.2628-1.3096 4.6304-2.058-0.0935-1.4499-0.74835-1.2161-3.9756 0.09355v-0.79513l-0.98221-0.70158-2.9934 0.37418-0.37418 1.1693-1.8709 0.3274-1.5902 0.51449-0.56127-0.42095-1.7306 0.32741-0.14031 0.42095-3.2741 0.98222-0.84189 1.4967-0.46773 0.56127 0.28064 0.46772-1.2628 0.3274-2.8999-0.04677-0.23386 1.2628 2.058 1.4967-0.18709 1.7773-0.60804-1.1693-3.6482-1.8241-1.1225 1.3564-0.51449-2.3386-0.74836 2.1047-0.42095 0.60804 0.79513 1.029-0.32741 1.1225 2.4322 0.46772-1.9177 0.46772 0.0468 0.98221-1.8709 1.9177-1.1225 0.28064 1.2161-2.058-0.0468-1.7773-0.32741-2.8531 0.28063-1.4499-1.2161-0.70158-1.2161 1.5435-2.1983 2.058 2.0112 1.2161-0.37418 1.4032-0.60803 2.783-2.9934 0.86528-1.0992 1.0758 0.42095 1.0524-0.0702 1.2161-2.5725 2.6192-0.46772 1.1225 0.0234 1.0991-0.86529 1.5903-3.087 3.0402-1.0524 1.5902-0.88868 1.2628-0.37417 0.98222-1.3564 0.93544-0.39756 1.3096z"/>
   <path d="m237.76 119.33-0.0661-1.6536 0.3638 0.23151 0.46302-1.1245-0.16536 1.356s0.26458 0.72761 0.26458 0.95912-0.0992 1.2898 0.0661 1.4552c0.16536 0.16537 0.52916 0.82683 0.66146 1.0914 0.13229 0.26459 0.52916 1.2898 0.39687 1.2568-0.13229-0.0331-1.1906-0.59531-1.1906-0.59531l-0.42995 0.8599 0.26458 1.0583 0.62839 1.2568-0.99219-0.66146-0.16537 0.76067-0.79375-0.26458 0.79375-1.5544 0.1323-2.4805z"/>
   <path d="m229.26 136.92 0.42994 0.82682-0.19843 0.95911 0.56224-0.16536 0.29765-1.0583 1.1576-0.42994 0.95912-0.95912 0.62838 0.39688 0.72761-0.0661 0.39687-0.82682 1.2898 0.33073 0.76067-0.66146 0.76068-0.8599s0-1.0914 0.0331-1.2237c0.0331-0.1323 0.52917-1.1906 0.52917-1.3229s0.16537-0.72761 0.0992-0.8599c-0.0661-0.13229-0.39687-0.85989-0.42995-0.99218-0.0331-0.1323-0.23151-0.99219-0.23151-0.99219l0.26459-0.16537 0.79375 0.26459 0.29765 0.13229 0.4961-0.69453 0.82682-0.13229 0.42995-0.52917-0.0662-0.46302-0.56224 0.0331-1.0583-0.52917-0.72761-0.66145-0.13229 1.5544-0.49609 0.62839-0.26459-0.13229-0.46302 0.69453 0.0661 0.52916v1.0583l-0.33073 1.5544-0.23151 0.89296-0.66146 0.66146-0.66146 0.29766-0.49609-0.56224-0.3638 0.52917v0.39687l-0.33073 0.56224-0.4961 0.39688-0.26458-0.16537-0.62838 0.13229-0.8599-0.29765-0.79375 0.82682-0.49609 0.46302z"/>
   <path d="m236.37 93.414 1.2072-0.47956 0.46303 0.03307 0.61184 0.38034 0.29766 0.31419-0.41341 0.21497-1.3229-0.41341z"/>
   <path d="m235.94 91.513-0.36381 0.03307-0.62838-0.28112-0.62839-0.5457-0.0331-0.66146 0.26458-0.69453 0.46302-0.46302 0.42995-0.24805 0.5457 0.46302 0.51264 0.49609 0.33072 0.09922 0.0992-0.31419 0.1819-0.26458 0.87644 0.04961 0.0661 0.1819 0.678 0.04961 0.51263 0.14883 0.87643 0.31419 0.0662 0.3638-0.54571 0.39688-0.29765 0.3638-0.94258-0.28112-0.11576-0.3638 0.14883-0.3638 0.14883-0.13229-0.62839-0.21497-0.26458 0.42995 0.28112 0.74414 0.28112 0.28112-0.23151 0.29766-0.39688-0.33073-1.1079 0.3638z"/>
   <path d="m242.22 91.331-0.31419-0.24805-0.46302-0.11576-0.57878-0.23151 0.16536-0.52917 0.28112 0.23151 0.54571-0.29766 0.44648 0.13229 0.13229 0.31419 0.66146 0.26458 0.74414-0.13229 0.26459 0.11576-0.1323 0.41341-0.69453 0.16536z"/>
   <path d="m207.28 85.796 0.93545-0.64312 0.3274-0.88867 0.52619-0.57296 0.35079 0.09354-0.14031 0.44434 0.19878 0.36248 0.63142-0.30402s0.38587 0.09355 0.5028 0.1637c0.11693 0.07016 0.64312 0.36248 0.64312 0.36248l-0.0585 0.38587v0.45603l-1.1108 0.11693-0.79513-0.03508s-0.23386 0.1754-0.32741 0.1637c-0.0935-0.01169-0.80682-0.03508-0.94713 0.08185-0.14032 0.11693-0.52619 0.24555-0.52619 0.24555l-0.46772-0.14032z"/>
   <path d="m201.37 83.072 0.26894-0.92375-0.11693-0.23386 0.85359-0.25725 0.0234-0.37418s-0.0234-0.51449 0.0351-0.53788c0.0585-0.02339 0.91205-0.15201 0.91205-0.15201l0.70159-0.43264s0.18709-0.1637 0.26894-0.14032c0.0819 0.02339 0.85359 0.39756 0.85359 0.39756l-0.0234 0.28063 0.76005 0.31571s0 0.22216-0.0935 0.26894c-0.0935 0.04677-0.29232-0.03508-0.39756 0.1637-0.10524 0.19878-0.22217 0.42095-0.22217 0.42095l0.21048 0.05846-0.12863 0.35079s-0.80682-0.07016-0.92375-0.02339-0.79512 0.30402-0.79512 0.30402l-0.54958 0.19878-0.26894 0.28063-0.80681 0.28063z"/>
   <path d="m207.15 84.849-1.0641 0.21048-0.42094-0.1637-0.59635-0.32741-0.6665 0.01169-0.91206-0.5028-0.54957-0.28063-0.18709-0.26894 0.8419-0.43264 0.26894-0.39756 0.8419-0.09355 0.53788 0.12862 0.46772-0.1754 0.1637-0.31571 0.0117 0.46772 0.16371 0.24555 0.58465-0.22217s0.0585-0.38587 0.23386-0.22217c0.17539 0.1637 0.38587 0.37418 0.39756 0.42095 0.0117 0.04677-0.18709 0.1637-0.17539 0.40926 0.0117 0.24555 0.0935 0.59634 0.0935 0.59634l0.1754 0.24555z"/>
   <path d="m193.2 155.64-0.14031 0.8419s-0.12863 0.15201-0.10524 0.24555c0.0234 0.0936 0.12862 0.6782 0.12862 0.6782s-0.1637 0.29233-0.14031 0.3391c0.0234 0.0468-0.0819 0.21047 0.23386 0.31571 0.31571 0.10524 0.47941 0.15201 0.47941 0.15201l0.29233-0.14032s0.21047-0.12862 0.21047-0.21047c0-0.0819-0.12862-0.61973-0.12862-0.61973l-0.32741-0.57296-0.0585-0.44434z"/>
   <path d="m204.11 158.78 0.29766 0.64493 0.47956 0.52916 0.44648 0.3142 0.38034 0.47955 0.49609 0.74414s0.39688 0.28112 0.44649 0.34727c0.0496 0.0661 0.34726 0.67799 0.39687 0.76068 0.0496 0.0827 0.51263 0.62838 0.51263 0.62838l0.3142 0.51263 0.31419 0.51263s0 0.34727 0.0496 0.42995c0.0496 0.0827 0.39687 0.49609 0.5457 0.62839 0.14883 0.13229 0.57878 0.56223 0.69453 0.67799 0.11576 0.11576 0.29766 0.14883 0.52917 0.42995s0.41341 0.46302 0.49609 0.59531c0.0827 0.13229 0.41341 0.26458 0.4961 0.21497 0.0827-0.0496 0.42994-0.1819 0.42994-0.1819s0.46302 0.34727 0.26459-0.21497c-0.19844-0.56224-0.3142-1.2072-0.3142-1.2072s0.21498-0.28112 0.21498-0.34727c0-0.0661-0.16537-0.3638-0.33073-0.57877-0.16537-0.21498-0.41341-0.47956-0.47956-0.54571-0.0661-0.0661-0.34726-0.38034-0.34726-0.38034s-0.16537-0.28112-0.24805-0.38033c-0.0827-0.0992-0.34727-0.79375-0.34727-0.79375s-0.38033-0.24805-0.52916-0.34727c-0.14883-0.0992-0.51263-0.47956-0.76068-0.62839-0.24805-0.14882-0.56224-0.39687-0.64492-0.46302-0.0827-0.0661-0.41341-0.0827-0.57878-0.26458-0.16536-0.1819-0.52916-0.62838-0.52916-0.62838l-0.42995-0.34727-0.47956-0.56224-0.51263-0.39688z"/>
   <path d="m211.74 167.88 0.3274-0.53788 0.58465 0.0234 0.93545 0.37417 0.42095 0.44434 0.86528-0.25725 0.58465-0.35079 0.3508 0.21048 0.46772 0.39756 0.74835 0.37417 0.56127-0.0468 0.39756 0.35079 0.88867 0.28064s0.44434 0.0702 0.56127 0.0234 0.91206-0.23386 0.91206-0.23386l0.53788 0.18708s0.63142 0.21048 0.72496 0.23387c0.0936 0.0234 1.0524 0.11693 1.0524 0.11693l0.98221 0.11693s0.56127-0.11693 0.65481-0.16371c0.0935-0.0468 0.95883-0.3274 1.1225-0.37417 0.1637-0.0468 0.81851-0.18709 0.95882-0.16371 0.14032 0.0234 0.28064 0.0935 0.28064 0.0935l-1.0992 0.44433-1.1693 0.18709s-0.46772 0.25725-0.58466 0.28064c-0.11693 0.0234-1.3798-0.30402-1.3798-0.30402s-0.53788-0.0468-0.6782-0.0702-0.81851-0.23386-1.1225-0.0935c-0.30402 0.14032-0.51449 0.25725-0.65481 0.25725h-1.029c-0.46772 0-0.79513 0.18709-1.0991 0-0.30402-0.18709-0.25725-0.28063-0.74836-0.44433-0.49111-0.16371 0.0468-0.11694-0.77174-0.21048-0.81851-0.0935-1.4967-0.0702-1.941-0.11693-0.44433-0.0468-0.37417 0-0.65481-0.11693-0.28063-0.11693-0.53788-0.28063-0.95883-0.37418-0.42095-0.0935-1.029-0.21047-1.029-0.21047z"/>
   <path d="m214.84 165.03v-0.69454l-0.39687-0.52916-0.49609-0.59532-0.0331-0.82682 0.13229-0.69453 0.33073-0.16536 0.99219 0.23151 0.29766-0.56224 0.13229-0.56224 0.79375-0.16537 0.62838-0.69453s0.33073-0.46302 0.56224-0.56224c0.23151-0.0992 0.66146-0.16536 0.66146-0.16536l0.56224-0.52917 0.26459-0.56224s0.29765-0.13229 0.42994-0.13229 0.52917 0.26458 0.52917 0.26458 0.0992 0.16537 0.3638 0.33073c0.26459 0.16537 1.0253 0.42995 1.0253 0.42995l-0.29765 0.46302-0.72761 0.42995-0.46302 0.52917s0 0.13229 0.26458 0.59531c0.26459 0.46302 0.29766 0.52916 0.33073 0.99219 0.0331 0.46302 0.39688 0.19843 0.0331 0.52916-0.36381 0.33073-0.33073 0.0661-0.52917 0.56224-0.19844 0.4961-0.3638 0.76068-0.49609 0.99219-0.1323 0.23151-0.36381 0.46302-0.36381 0.46302s-0.0331 0.16536-0.0331 0.56224c0 0.39687 0.26458 0.42995-0.0992 0.59531-0.3638 0.16537-0.59531 0.42995-0.85989 0.26459-0.26459-0.16537-0.0992-0.0992-0.66146-0.42995-0.56224-0.33073-0.62839-0.46302-1.0583-0.42995-0.42994 0.0331-0.42994 0.16536-0.82682 0.23151-0.39687 0.0661-1.1906 0-1.1906 0z"/>
   <path d="m222.25 153.23 0.23151-0.85989-0.4961-0.42995-0.39687-0.89297 0.29766-0.52917 0.49609-0.89296-0.0331-0.62839 0.95911-0.26458 0.56224 0.46302-0.26458 1.1245-0.3638 0.79375-0.19844 0.92604 0.62838 0.26458 1.6867 0.19844-0.46302 0.7276 0.39688 0.42995 0.56224 0.39688 0.16536 0.85989s0.0331 0.13229 0.26458 0.46302c0.23151 0.33073 0.46302 0.52917 0.4961 1.0253 0.0331 0.4961-0.19844 1.5544-0.19844 1.5544l-0.69453 0.82682s-0.39688-0.49609-0.62839-0.56224c-0.23151-0.0661-0.69453-0.33072-0.69453-0.33072l0.42995-0.42995s-0.23151-0.46302-0.56224-0.66146-1.0914-0.46302-1.0914-0.59531c0-0.1323 0.39688-0.29766 0.36381-0.66146-0.0331-0.3638 0.0661-0.69453-0.0992-0.8599-0.16537-0.16536-0.3638-0.46302-0.3638-0.46302l-0.59532-0.46302z"/>
   <path d="m221.54 165.61-0.58466-0.60804 0.46772-0.56127 0.0935-0.1637 0.44434-0.63142-0.25725-0.72497 0.30402-0.5145 0.79513-0.37418h0.6548l1.333 0.25725 0.65481-0.53788-0.21047 0.6782-0.70159 0.30402-0.53788-0.11693-1.5669 0.25725-0.23386 0.30401 0.4911 0.49111 0.3508-0.30402 0.63142 0.0234s0.65481 0 0.60804 0.0935c-0.0468 0.0935-0.56127 0.42095-0.56127 0.42095l-0.4911 0.42095 0.21047 0.46773 0.35079 0.72497-0.35079 0.42094 0.51449 0.16371v0.53788l-0.30402 0.37417-0.44433-0.51449-0.42095-0.74836-0.28063-0.51449-0.25725 0.28064 0.0234 0.53787-0.18709 0.42095 0.14032 0.37418-0.53788 0.25725-0.21048-0.25725 0.32741-0.74835z"/>
   <path d="m230.78 164.65-0.14032-0.46773-0.56126-0.3274 0.63142-0.65481 0.44434-0.11693 0.21047 0.35079 0.44434 0.0935 0.28063 0.18708-0.0935 0.44434 0.28063 0.49111 0.39756 0.44433 0.37418 0.25725 0.49111-0.46772 0.18708-0.23386s0.23387-0.30402 0.32741-0.28064c0.0935 0.0234 0.28063 0.11693 0.28063 0.11693l0.32741-0.30402h0.51449l0.46773 0.21048 0.51449 0.3274 0.74835 0.0936 0.95883 0.35079 0.70158 0.39757 0.70159 0.23386 0.65481 0.1637 0.44433 0.42095 0.0234 0.60803 0.63143 0.14032 0.4911 0.0468 0.46773 0.56127-0.25725 0.23386-0.11693 0.11693-0.0702 0.32741 0.39756 0.53788 0.53788 0.39756 0.5145 0.35079 0.3274 0.5145 0.56127 0.4911 0.25725 0.14032-0.53788 0.0702s-0.25725-0.25725-0.3508-0.32741c-0.0935-0.0702-0.95882-0.0702-0.95882-0.0702s-0.3508 0.0468-0.44434-0.0935c-0.0935-0.14032-0.60804-0.88867-0.60804-0.88867l-0.44434-0.49111-0.72496-0.39756-0.6782-0.25725-0.37418 0.35079-0.44433 0.14032-0.11693 0.28063 0.46772 0.23386-0.37418 0.23386-0.46772 0.11693-1.1459-0.0935-0.39756-0.49111-0.93545-0.0702-0.46772 0.23386-0.35079-0.44433 0.28064-0.6782 0.4911 0.39756-0.28063-0.81851-0.14032-0.44433-0.58465-0.63143-0.63142-0.46772s-0.30402-0.0702-0.44434-0.0935c-0.14032-0.0234-1.3564-0.28064-1.3564-0.28064l-0.53788-0.21047-0.14032 0.23386h-0.28063l0.14032-0.58465z"/>
   <path d="m217.92 185.07-0.74835-1.9644 0.8419-0.0935-0.98222-1.6838 0.79513-1.6838 1.637-1.3564 2.1048-0.28063 1.1693-0.37418 0.84189-1.1693v-0.60804l0.42095-0.37418 0.32741 0.28064 0.51449-0.5145 0.37418-0.8419 1.029-1.1693h0.88867l1.3096 0.98221 0.51449-0.0935-0.14031-1.029 1.4967-1.2628 1.0758-0.18708 2.5257 0.3274-0.14031 0.5145-0.23386 0.18708-0.0468 0.79513-0.70158 0.70158 3.5547 2.1515 0.93544-1.4967 0.32741-1.9644 0.42095-1.8241 0.93544 2.6192h0.98221l0.8419 3.1337 1.4032 1.0758 0.98221 1.9644 0.98222 0.28063 0.79513 1.4499 0.84189 0.56127 0.23386 2.058-0.0935 1.2628-0.42095 1.6838 0.0468 0.93545-1.1225 0.88867-0.0935 0.88867-0.42095 0.93544-0.70158 0.93545 0.37417 0.79512-0.88867 0.32741-0.88867-0.14032-0.93544 0.88867-1.0758-0.70158-0.37418 0.28063-0.60804 0.14032-1.1693-0.46772-0.93545-0.0468-0.42095-1.2628-0.93544-0.98222-0.56126-2.2918-0.88868 0.93544-0.88867 1.3096-0.98221-2.1983-0.65481-0.56127-0.98222 0.0936-0.56126-0.56127-0.88868 0.0468-1.5902 0.70159-1.5902-0.23387-0.93545 0.8419-0.3274 0.93545-1.8709-0.23386-2.0112 0.79512-1.6838 0.0468-0.56126-0.46773 0.42094-1.3096-0.18709-1.5435z"/>
   <path d="m240.04 195.27 0.88867 0.37418 1.2628-0.42095 0.0468 1.2628-1.029 1.4032-1.2628-0.88867z"/>
   <path d="m255.64 200.04 1.1459-1.5435 1.0992-0.56126 0.79513-0.98222 0.37417-0.74836 0.65482-1.2161 0.60803 0.86528 0.65481-0.3274 0.0234 0.79512-0.46772 0.70159-0.35079 0.58465-0.25725 0.23386 0.18709 0.18709-0.79512 0.18709-0.6782 0.56126 0.18709 0.63143-0.65481 0.79513-0.63143 0.63142-0.74835-0.14032-0.14032-0.25724h-0.35079z"/>
   <path d="m261.37 195.57 0.3274-0.53788-0.0935-0.65481h-0.44434l-0.39756-0.28063 0.60804-0.74836-0.0702-1.2161-0.39757-0.65482-0.44433-0.65481-0.39756-1.1459 0.84189 0.93544 0.32741 0.77174 0.56127 0.63143 0.11693-0.39757 0.30402 0.49111 0.25724 0.44434 0.49111 0.0935 0.58465-0.0702 0.42095-0.30402 0.16371 0.56127-0.39757 0.79512-0.6782 0.0468-0.18708 0.51449 0.0234 0.42095-0.28063 0.70158-0.81851 0.8419z"/>
  </g>
 </g>
</svg>
